<svg width="250" height="160" viewBox="0 0 250 160" fill="none" xmlns="http://www.w3.org/2000/svg">
<g clip-path="url(#clip0_1712_1468)">
<mask id="mask0_1712_1468" style="mask-type:luminance" maskUnits="userSpaceOnUse" x="0" y="0" width="250" height="160">
<path d="M250 0H0V160H250V0Z" fill="white"/>
</mask>
<g mask="url(#mask0_1712_1468)">
<path d="M251.259 -3.54523H-1.19531V162.248H251.259V-3.54523Z" fill="#1B459C"/>
<path d="M7.89472 68.9466C8.0426 68.8908 8.20265 68.8594 8.36967 68.8594C9.19256 68.8594 9.82757 69.5935 9.7197 70.4201L9.21344 116.58C9.04642 116.503 8.86201 116.46 8.66542 116.46C8.31747 116.46 8.00432 116.596 7.76946 116.815C7.67551 116.902 7.59548 117.004 7.53111 117.115L7.01963 70.4201C6.93439 69.7609 7.31887 69.1628 7.89472 68.9448V68.9466Z" fill="#232C65"/>
<path d="M3.52284 66.4059C4.34573 66.4059 4.98074 67.14 4.87287 67.9666L4.82068 72.8442L4.34051 118.16C4.19264 118.102 4.03258 118.069 3.86383 118.069C3.48108 118.069 3.14184 118.233 2.90175 118.493C2.82694 118.575 2.76083 118.666 2.7069 118.763L2.16932 67.9666C2.0632 67.14 2.6982 66.4059 3.51936 66.4059H3.52284Z" fill="#232C65"/>
<path d="M13.2844 76.3964C13.9264 76.3964 14.4552 76.8445 14.6049 77.434C14.6466 77.5996 14.6588 77.7757 14.6362 77.9571L14.2152 114.67C14.2152 114.67 14.2012 114.662 14.1943 114.656C13.9907 114.526 13.7489 114.447 13.4862 114.447C13.1452 114.447 12.8373 114.578 12.6042 114.791C12.5085 114.878 12.4267 114.977 12.3606 115.089L11.9344 77.9571C11.8874 77.5874 11.9866 77.2369 12.1866 76.9614C12.4337 76.6213 12.8303 76.3964 13.2844 76.3964Z" fill="#232C65"/>
<path d="M17.1451 82.1475C17.3852 81.9296 17.7018 81.7953 18.0532 81.7953C18.7056 81.7953 19.2397 82.2557 19.3789 82.859C19.4154 83.0177 19.4259 83.1851 19.4032 83.356L19.1336 105.745L19.0396 113.479C18.8361 113.349 18.596 113.272 18.3333 113.272C18.0045 113.272 17.707 113.392 17.4774 113.591C17.2877 113.755 17.1451 113.973 17.0703 114.217L16.6997 83.3543C16.6388 82.88 16.8197 82.4388 17.1416 82.1458L17.1451 82.1475Z" fill="#232C65"/>
<path d="M22.0598 88.1551C22.2999 87.9371 22.6165 87.8046 22.9662 87.8046C23.4585 87.8046 23.8813 88.0661 24.1214 88.4533C24.2832 88.7149 24.3597 89.0322 24.3162 89.3653L24.0187 112.756C23.9718 112.715 23.9213 112.677 23.8691 112.644C23.6656 112.513 23.4255 112.436 23.1645 112.436C22.8374 112.436 22.5417 112.555 22.3138 112.752C22.1346 112.906 21.9972 113.106 21.9189 113.331L21.6144 89.3636C21.5535 88.8892 21.7362 88.4463 22.058 88.1533L22.0598 88.1551Z" fill="#232C65"/>
<path d="M26.9832 93.6291C27.2042 93.4687 27.4756 93.3745 27.7713 93.3745C28.241 93.3745 28.6499 93.6152 28.8952 93.9744C29.0779 94.2447 29.1683 94.5812 29.1231 94.9352L28.883 112.775C28.8273 112.724 28.7682 112.679 28.7056 112.639C28.5037 112.512 28.2654 112.437 28.0079 112.437C27.6913 112.437 27.4042 112.55 27.1781 112.735C26.8353 113.015 26.637 113.465 26.6996 113.948L26.4213 94.9335C26.3534 94.4034 26.5883 93.9116 26.9832 93.6274V93.6291Z" fill="#232C65"/>
<path d="M31.8753 98.7315C32.0893 98.5885 32.3451 98.5066 32.6217 98.5066C33.0392 98.5066 33.4081 98.6967 33.6568 98.9896C33.8987 99.2756 34.0257 99.6593 33.9735 100.067L33.7804 113.701C33.7021 113.61 33.6116 113.53 33.5124 113.464C33.3054 113.324 33.0566 113.242 32.787 113.242C32.4999 113.242 32.2372 113.335 32.0232 113.49C31.7205 113.708 31.5152 114.051 31.4752 114.44L31.2717 100.067C31.2003 99.518 31.4561 99.0123 31.8753 98.7315Z" fill="#232C65"/>
<path d="M36.8006 101.393C37.0006 101.274 37.2338 101.206 37.4843 101.206C37.8966 101.206 38.2619 101.391 38.5107 101.679C38.7578 101.965 38.8883 102.354 38.8343 102.767L38.6656 114.133C38.5855 114.036 38.4933 113.948 38.3889 113.877C38.1784 113.73 37.9227 113.645 37.6461 113.645C37.3764 113.645 37.1276 113.727 36.9206 113.865C36.5153 114.137 36.2682 114.627 36.3378 115.157L36.1308 102.767C36.056 102.191 36.3413 101.661 36.7971 101.393H36.8006Z" fill="#232C65"/>
<path d="M41.6945 103.52C41.8824 103.419 42.0981 103.362 42.3278 103.362C42.7401 103.362 43.1054 103.546 43.3525 103.834C43.5995 104.12 43.7317 104.511 43.6778 104.924L43.5108 115.8C43.4342 115.694 43.342 115.6 43.2394 115.521C43.0202 115.354 42.7471 115.255 42.4478 115.255C42.2147 115.255 41.9972 115.316 41.8093 115.422C41.4718 115.612 41.2283 115.947 41.1517 116.338L40.976 104.926C40.8995 104.329 41.2074 103.782 41.6928 103.522L41.6945 103.52Z" fill="#232C65"/>
<path d="M46.5344 104.924C46.7397 104.797 46.9815 104.722 47.2442 104.722C47.6043 104.722 47.9279 104.861 48.168 105.088C48.4794 105.381 48.6551 105.817 48.5942 106.282L48.4168 117.542C48.3263 117.379 48.201 117.236 48.0531 117.124C47.8357 116.96 47.5643 116.862 47.2685 116.862C47.0441 116.862 46.8336 116.918 46.6509 117.018C46.3969 117.154 46.1934 117.373 46.0716 117.637L45.8924 106.284C45.8193 105.719 46.0925 105.2 46.5344 104.924Z" fill="#232C65"/>
<path d="M51.3882 105.09C51.59 104.969 51.8266 104.898 52.0806 104.898C52.4425 104.898 52.7661 105.039 53.0079 105.268C53.3176 105.56 53.4915 105.995 53.4306 106.459L53.2219 119.464C53.1297 119.325 53.0114 119.204 52.8757 119.108C52.6634 118.96 52.4077 118.873 52.1276 118.873C51.9084 118.873 51.7013 118.927 51.5204 119.023C51.2682 119.156 51.0629 119.37 50.9393 119.628L50.7288 106.459C50.6558 105.887 50.9359 105.36 51.3865 105.088L51.3882 105.09Z" fill="#232C65"/>
<path d="M56.2524 105.062C56.4403 104.962 56.6525 104.907 56.8822 104.907C57.2788 104.907 57.632 105.078 57.879 105.348C58.1435 105.637 58.2879 106.04 58.2322 106.467L57.9852 121.825C57.9121 121.726 57.8234 121.635 57.7259 121.56C57.505 121.391 57.2301 121.288 56.9291 121.288C56.743 121.288 56.5673 121.327 56.409 121.396C56.1428 121.513 55.9236 121.714 55.7809 121.965L55.5304 106.467C55.4538 105.869 55.7635 105.32 56.2524 105.062Z" fill="#232C65"/>
<path d="M110.304 58.6073C111.127 58.6073 111.762 59.3415 111.654 60.1681L111.472 77.1148L110.553 162.246H110.055L109.14 77.4758L108.954 60.1663C108.848 59.3398 109.483 58.6056 110.304 58.6056V58.6073Z" fill="#232C65"/>
<path d="M105.463 63.682C106.286 63.682 106.921 64.4162 106.813 65.2427L106.724 73.1354L105.722 162.246H105.204L104.113 65.2427C104.007 64.4162 104.64 63.682 105.463 63.682Z" fill="#232C65"/>
<path d="M100.621 68.6449C101.444 68.6449 102.079 69.3791 101.971 70.2057L100.887 162.018C100.736 161.953 100.571 161.917 100.395 161.915C100.39 161.915 100.383 161.915 100.377 161.915C100.369 161.915 100.36 161.915 100.35 161.915L99.2675 70.2057C99.2257 69.8796 99.2988 69.5674 99.4536 69.3093C99.6902 68.9135 100.12 68.6432 100.617 68.6432L100.621 68.6449Z" fill="#232C65"/>
<path d="M95.7428 73.941C96.4369 73.941 96.9971 74.4642 97.0911 75.1251C97.1085 75.2472 97.1102 75.3745 97.0928 75.5035L97.0528 78.7192L96.0785 157.201C95.9167 157.13 95.7393 157.09 95.5497 157.09C95.5305 157.09 95.5114 157.09 95.494 157.09C95.4644 157.09 95.4348 157.093 95.4053 157.097L94.3927 75.5035C94.3458 75.1478 94.438 74.8077 94.6241 74.5374C94.8694 74.1799 95.2765 73.9428 95.7445 73.9428L95.7428 73.941Z" fill="#232C65"/>
<path d="M90.9376 79.7864C91.4735 79.7864 91.9293 80.0985 92.1537 80.545C92.2738 80.7839 92.3259 81.0594 92.2894 81.3489L91.6109 133.146L91.3691 151.624C91.1812 151.518 90.9637 151.457 90.7306 151.457C90.6871 151.457 90.6454 151.459 90.6036 151.464C90.5705 151.467 90.5358 151.471 90.5044 151.478L89.5859 81.3506C89.5354 80.9617 89.6485 80.5938 89.8694 80.313C90.1182 79.9956 90.501 79.7899 90.9376 79.7899V79.7864Z" fill="#232C65"/>
<path d="M86.061 85.0476C86.5533 85.0476 86.9778 85.3092 87.2162 85.6981C87.378 85.9596 87.4545 86.277 87.411 86.6101L86.6438 142.18L86.5847 146.429C86.3829 146.302 86.1463 146.229 85.8888 146.229C85.8244 146.229 85.7618 146.234 85.7009 146.243C85.6435 146.252 85.5878 146.262 85.5339 146.278L84.7092 86.6101C84.6518 86.1706 84.8049 85.7556 85.085 85.4661C85.3303 85.2098 85.6748 85.0494 86.0593 85.0494L86.061 85.0476Z" fill="#232C65"/>
<path d="M80.3147 90.8598C80.5478 90.6663 80.8453 90.5494 81.1741 90.5494C81.6404 90.5494 82.0475 90.7866 82.2928 91.1423C82.4789 91.4126 82.5711 91.7527 82.5259 92.1119L81.8195 140.833C81.8195 140.833 81.8074 140.825 81.8004 140.819C81.5916 140.678 81.3411 140.596 81.0697 140.596C80.9793 140.596 80.8923 140.605 80.8088 140.622C80.7113 140.642 80.6174 140.673 80.5287 140.713L79.8241 92.1102C79.7597 91.6132 79.9632 91.1493 80.3147 90.8581V90.8598Z" fill="#232C65"/>
<path d="M75.5462 95.4881C75.7706 95.3207 76.0472 95.2213 76.3499 95.2213C76.7814 95.2213 77.1606 95.4236 77.4094 95.734C77.6339 96.0165 77.7522 96.388 77.7 96.7821L77.1067 136.088C77.0771 136.062 77.0458 136.038 77.0145 136.015C76.8005 135.86 76.5378 135.768 76.2508 135.768C76.1429 135.768 76.0403 135.782 75.9411 135.804C75.8158 135.834 75.6975 135.883 75.5897 135.947L74.9982 96.7821C74.9303 96.2589 75.16 95.7741 75.5444 95.4864L75.5462 95.4881Z" fill="#232C65"/>
<path d="M70.7463 98.9479C70.9551 98.8154 71.2021 98.7369 71.47 98.7369C71.8928 98.7369 72.2668 98.9305 72.5139 99.2322C72.7487 99.5164 72.8723 99.8966 72.8201 100.298L72.3242 132.1C72.2842 132.064 72.2425 132.029 72.199 131.997C71.9833 131.84 71.7188 131.746 71.43 131.746C71.3013 131.746 71.1795 131.765 71.0629 131.799C70.8977 131.847 70.7463 131.928 70.6141 132.032L70.1183 100.298C70.0469 99.7396 70.3114 99.2235 70.7446 98.9479H70.7463Z" fill="#232C65"/>
<path d="M65.9168 102.207C66.1378 102.05 66.4057 101.956 66.698 101.956C67.0511 101.956 67.3678 102.09 67.6078 102.31C67.9279 102.603 68.1089 103.044 68.048 103.517L67.6513 128.269C67.5713 128.157 67.4721 128.06 67.3625 127.978C67.1468 127.819 66.8789 127.723 66.5883 127.723C66.437 127.723 66.2943 127.749 66.1604 127.795C66.0038 127.849 65.8629 127.932 65.7394 128.037L65.3462 103.517C65.2766 102.983 65.5167 102.49 65.9151 102.205L65.9168 102.207Z" fill="#232C65"/>
<path d="M61.0662 103.551C61.2576 103.447 61.4768 103.388 61.7117 103.388C62.1153 103.388 62.4737 103.565 62.7224 103.843C62.9799 104.13 63.1174 104.528 63.0634 104.948L62.7468 124.539C62.6824 124.465 62.6094 124.401 62.5293 124.345C62.3154 124.193 62.0561 124.103 61.7726 124.103C61.5916 124.103 61.4211 124.139 61.2663 124.206C61.0297 124.305 60.8296 124.472 60.687 124.682L60.3634 104.948C60.2868 104.357 60.5895 103.813 61.0697 103.551H61.0662Z" fill="#232C65"/>
<path d="M119.988 50.5978C119.165 50.5978 118.53 51.3319 118.638 52.1585L118.996 87.883L119.702 158.261L119.742 162.248H120.237L120.986 87.5343L121.341 52.1585C121.447 51.3319 120.812 50.5978 119.991 50.5978H119.988Z" fill="#232C65"/>
<path d="M115.183 54.2947C114.36 54.2947 113.725 55.0289 113.833 55.8555L114.106 82.1841L114.936 162.246H115.43L116.263 81.9365L116.533 55.8537C116.639 55.0271 116.004 54.293 115.183 54.293V54.2947Z" fill="#232C65"/>
<path d="M202.474 56.4031C201.651 56.4031 201.016 57.1372 201.124 57.9638L201.454 91.5172L201.665 112.853C201.905 112.59 202.248 112.423 202.634 112.423C202.872 112.423 203.093 112.485 203.285 112.597L203.495 91.2417L203.824 57.9656C203.93 57.139 203.295 56.4048 202.474 56.4048V56.4031Z" fill="#232C65"/>
<path d="M207.279 61.4446C206.456 61.4446 205.821 62.1787 205.929 63.0053L206.166 86.2247L206.421 111.319C206.661 111.012 207.034 110.811 207.456 110.811C207.709 110.811 207.944 110.883 208.142 111.007L208.399 85.7887L208.631 63.0053C208.737 62.1787 208.102 61.4446 207.281 61.4446H207.279Z" fill="#232C65"/>
<path d="M212.194 65.9333C211.371 65.9333 210.736 66.6675 210.844 67.4941L210.988 81.1711L211.134 94.9685L211.289 109.636C211.289 109.636 211.294 109.631 211.296 109.627C211.536 109.369 211.875 109.205 212.256 109.205C212.58 109.205 212.874 109.322 213.102 109.516L213.406 80.5765L213.544 67.4958C213.65 66.6693 213.015 65.9351 212.194 65.9351V65.9333Z" fill="#232C65"/>
<path d="M216.999 70.8614C216.176 70.8614 215.541 71.5955 215.649 72.4221L216.054 109.348C216.098 109.289 216.144 109.233 216.197 109.182C216.433 108.949 216.757 108.801 217.119 108.801C217.435 108.801 217.724 108.914 217.95 109.099L218.321 75.282L218.352 72.4204C218.458 71.5938 217.823 70.8596 217.002 70.8596L216.999 70.8614Z" fill="#232C65"/>
<path d="M221.877 76.3964C221.413 76.3964 221.009 76.63 220.764 76.9823C220.574 77.2543 220.48 77.5979 220.525 77.9589L220.875 108.488C220.938 108.412 221.009 108.34 221.087 108.279C221.31 108.105 221.588 107.998 221.895 107.998C222.288 107.998 222.636 108.171 222.876 108.443L223.225 77.9589C223.332 77.1323 222.697 76.3981 221.875 76.3981L221.877 76.3964Z" fill="#232C65"/>
<path d="M226.79 81.7953C226.353 81.7953 225.969 82.0028 225.72 82.3202C225.501 82.6009 225.388 82.9689 225.438 83.356L225.741 108.457C225.812 108.373 225.894 108.3 225.984 108.236C226.197 108.086 226.456 107.997 226.736 107.997C227.173 107.997 227.554 108.209 227.792 108.534C227.808 108.555 227.822 108.576 227.836 108.598L228.14 83.356C228.171 83.1119 228.138 82.8765 228.055 82.6655C227.856 82.1598 227.369 81.7953 226.79 81.7953Z" fill="#232C65"/>
<path d="M231.559 87.8046C231.22 87.8046 230.912 87.9301 230.675 88.1341C230.339 88.4254 230.146 88.8788 230.209 89.3653L230.464 109.437C230.572 109.271 230.715 109.13 230.884 109.025C231.082 108.903 231.315 108.832 231.567 108.832C231.983 108.832 232.349 109.025 232.589 109.324C232.611 109.353 232.634 109.383 232.655 109.414L232.911 89.3653C232.945 89.0933 232.9 88.8334 232.796 88.605C232.58 88.1359 232.114 87.8046 231.561 87.8046H231.559Z" fill="#232C65"/>
<path d="M236.4 93.3745C236.108 93.3745 235.838 93.4687 235.617 93.6256C235.219 93.9099 234.981 94.4034 235.049 94.937L235.259 110.64C235.397 110.468 235.574 110.328 235.781 110.241C235.938 110.175 236.108 110.138 236.291 110.138C236.752 110.138 237.15 110.375 237.387 110.731C237.448 110.823 237.498 110.925 237.536 111.031L237.752 94.937C237.796 94.6004 237.716 94.2796 237.55 94.0162C237.31 93.6343 236.887 93.3762 236.4 93.3762V93.3745Z" fill="#232C65"/>
<path d="M242.312 99.0211C242.063 98.7072 241.684 98.5049 241.251 98.5049C240.993 98.5049 240.755 98.5764 240.551 98.7002C240.104 98.9722 239.826 99.4971 239.901 100.066L240.078 112.581C240.228 112.368 240.437 112.201 240.684 112.107C240.83 112.051 240.988 112.02 241.153 112.02C241.573 112.02 241.941 112.217 242.183 112.522C242.291 112.658 242.371 112.815 242.42 112.984L242.603 100.067C242.653 99.675 242.536 99.3036 242.314 99.0228L242.312 99.0211Z" fill="#232C65"/>
<path d="M129.671 44.5048C128.848 44.5048 128.213 45.2389 128.321 46.0655L128.824 98.7629L129.429 162.248H129.918L130.525 98.4856L131.025 46.0672C131.131 45.2407 130.497 44.5065 129.675 44.5065L129.671 44.5048Z" fill="#232C65"/>
<path d="M124.793 47.281C123.97 47.281 123.335 48.0152 123.443 48.8418L123.874 93.16L124.469 154.172L124.548 162.248H125.036L125.713 92.7763L126.141 48.8435C126.247 48.0169 125.612 47.2828 124.791 47.2828L124.793 47.281Z" fill="#232C65"/>
<path d="M134.535 42.0268C133.712 42.0268 133.077 42.761 133.185 43.5875L133.746 103.606L134.292 162.246H134.779L135.329 103.372L135.887 43.5875C135.993 42.761 135.358 42.0268 134.537 42.0268H134.535Z" fill="#232C65"/>
<path d="M139.414 40.2568C138.591 40.2568 137.956 40.9909 138.063 41.8175L138.669 107.845L139.168 162.248H139.659L140.16 107.646L140.764 41.8175C140.87 40.9909 140.235 40.2568 139.414 40.2568Z" fill="#232C65"/>
<path d="M144.219 38.7222C143.396 38.7222 142.761 39.4564 142.869 40.283L143.511 110.973L143.973 161.911C144.12 161.812 144.288 161.742 144.469 161.709L144.932 110.752L145.572 40.2847C145.678 39.4581 145.043 38.724 144.222 38.724L144.219 38.7222Z" fill="#232C65"/>
<path d="M149.109 37.9496C148.286 37.9496 147.651 38.6838 147.759 39.5104L148.42 113.085L148.82 157.681C148.991 157.571 149.189 157.499 149.403 157.48L149.803 112.939L150.463 39.5104C150.569 38.6838 149.934 37.9496 149.113 37.9496H149.109Z" fill="#232C65"/>
<path d="M153.914 37.1702C153.091 37.1702 152.456 37.9043 152.564 38.7309L153.244 114.993L153.584 152.897C153.773 152.76 153.999 152.671 154.248 152.651L154.586 114.768L155.264 38.7309C155.37 37.9043 154.735 37.1702 153.914 37.1702Z" fill="#232C65"/>
<path d="M168.511 38.2775C167.688 38.2775 167.053 39.0117 167.161 39.8383L167.834 115.544L168.02 136.439C168.243 136.261 168.525 136.155 168.833 136.155C168.89 136.155 168.947 136.158 169.003 136.167L169.189 115.349L169.861 39.84C169.967 39.0134 169.332 38.2793 168.511 38.2793V38.2775Z" fill="#232C65"/>
<path d="M173.352 39.3884C172.529 39.3884 171.894 40.1226 172.002 40.9491L172.658 114.229L172.815 131.633C173.041 131.443 173.333 131.326 173.655 131.326C173.738 131.326 173.818 131.335 173.897 131.349L174.052 114.032L174.706 40.9474C174.812 40.1208 174.177 39.3867 173.356 39.3867L173.352 39.3884Z" fill="#232C65"/>
<path d="M178.231 40.9404C177.408 40.9404 176.773 41.6746 176.881 42.5012L177.51 112.316L177.648 127.601C177.872 127.416 178.159 127.305 178.474 127.305C178.593 127.305 178.709 127.32 178.817 127.35L178.954 112.126L179.582 42.5012C179.689 41.6746 179.054 40.9404 178.232 40.9404H178.231Z" fill="#232C65"/>
<path d="M183.072 43.0905C182.249 43.0905 181.614 43.8247 181.722 44.6513L182.314 109.618L182.441 123.618C182.672 123.411 182.977 123.282 183.314 123.282C183.451 123.282 183.582 123.302 183.705 123.343L183.832 109.451L184.422 44.6495C184.528 43.823 183.893 43.0888 183.072 43.0888V43.0905Z" fill="#232C65"/>
<path d="M187.877 45.8005C187.054 45.8005 186.419 46.5347 186.527 47.3613L187.07 106.134L187.199 120.059C187.437 119.817 187.766 119.665 188.135 119.665C188.284 119.665 188.427 119.689 188.559 119.735L188.688 105.836L189.229 47.3613C189.335 46.5347 188.7 45.8005 187.879 45.8005H187.877Z" fill="#232C65"/>
<path d="M192.79 48.6151C191.968 48.6151 191.333 49.3493 191.44 50.1759L191.926 101.755L192.072 117.209C192.307 116.986 192.623 116.847 192.975 116.847C193.168 116.847 193.349 116.889 193.512 116.964L193.657 101.579L194.141 50.1776C194.247 49.351 193.612 48.6169 192.79 48.6169V48.6151Z" fill="#232C65"/>
<path d="M197.632 52.4114C196.809 52.4114 196.174 53.1455 196.282 53.9721L196.693 96.7453L196.867 114.801C197.101 114.574 197.42 114.433 197.775 114.433C198.003 114.433 198.215 114.491 198.401 114.594L198.575 96.482L198.984 53.9721C199.09 53.1455 198.457 52.4114 197.634 52.4114H197.632Z" fill="#232C65"/>
<path d="M158.827 37.151C158.004 37.151 157.369 37.8852 157.477 38.7117L158.164 116.088L158.441 147.24C158.65 147.099 158.9 147.017 159.172 147.017C159.187 147.017 159.201 147.017 159.217 147.017L159.492 115.975L160.177 38.7117C160.283 37.8852 159.648 37.151 158.827 37.151Z" fill="#232C65"/>
<path d="M163.633 37.6585C162.81 37.6585 162.175 38.3926 162.282 39.2192L162.968 116.402L163.196 142.073C163.419 141.894 163.702 141.786 164.012 141.786C164.033 141.786 164.052 141.786 164.073 141.786L164.301 116.205L164.984 39.2175C165.09 38.3909 164.455 37.6567 163.634 37.6567L163.633 37.6585Z" fill="#232C65"/>
<path d="M86.061 85.0476C85.6765 85.0476 85.3321 85.208 85.0868 85.4643L84.8206 59.188C84.7145 58.3719 85.3408 57.6482 86.1532 57.6482C86.9657 57.6482 87.592 58.3719 87.4859 59.188L87.2179 85.698C86.9779 85.3109 86.5534 85.0476 86.0628 85.0476H86.061Z" fill="#5CC9E6"/>
<path d="M81.1741 90.5495C80.8453 90.5495 80.5478 90.6663 80.3147 90.8599L79.972 56.3212C79.8658 55.5051 80.4921 54.7814 81.3046 54.7814C82.117 54.7814 82.7434 55.5051 82.6372 56.3212L82.2928 91.1424C82.0475 90.7866 81.6421 90.5495 81.1741 90.5495Z" fill="#5CC9E6"/>
<path d="M76.3499 95.2212C76.0472 95.2212 75.7706 95.3206 75.5462 95.488L75.146 54.6819C75.0399 53.8658 75.6662 53.1421 76.4787 53.1421C77.2911 53.1421 77.9174 53.8658 77.8113 54.6819L77.4094 95.7356C77.1606 95.4235 76.7814 95.2229 76.3499 95.2229V95.2212Z" fill="#5CC9E6"/>
<path d="M71.4699 98.7352C71.202 98.7352 70.955 98.8136 70.7462 98.9462L70.2991 52.6313C70.193 51.8151 70.8193 51.0914 71.6317 51.0914C72.4442 51.0914 73.0705 51.8151 72.9644 52.6313L72.5155 99.2287C72.2667 98.927 71.8944 98.7334 71.4717 98.7334L71.4699 98.7352Z" fill="#5CC9E6"/>
<path d="M66.6977 101.956C66.4054 101.956 66.1358 102.05 65.9166 102.207L65.4312 51.4053C65.3251 50.5892 65.9514 49.8655 66.7638 49.8655C67.5745 49.8655 68.2026 50.5892 68.0965 51.4053L67.6093 102.312C67.3692 102.092 67.0509 101.958 66.6995 101.958L66.6977 101.956Z" fill="#5CC9E6"/>
<path d="M52.0806 104.898C51.8266 104.898 51.59 104.968 51.3882 105.09L50.8662 50.5385C50.7601 49.7224 51.3864 48.9987 52.1989 48.9987C53.0096 48.9987 53.6376 49.7224 53.5315 50.5385L53.0079 105.269C52.766 105.041 52.4407 104.9 52.0806 104.9V104.898Z" fill="#5CC9E6"/>
<path d="M47.2441 104.722C46.9831 104.722 46.7413 104.797 46.5343 104.924L46.0193 51.2361C45.9132 50.42 46.5395 49.6963 47.352 49.6963C48.1627 49.6963 48.7907 50.42 48.6846 51.2361L48.1679 105.09C47.9261 104.863 47.6025 104.723 47.2441 104.723V104.722Z" fill="#5CC9E6"/>
<path d="M42.3277 103.362C42.0981 103.362 41.8823 103.419 41.6944 103.52L41.1934 51.8639C41.0873 51.0478 41.7136 50.3241 42.526 50.3241C43.3385 50.3241 43.9648 51.0478 43.8587 51.8639L43.3541 103.834C43.1054 103.546 42.7418 103.362 42.3294 103.362H42.3277Z" fill="#5CC9E6"/>
<path d="M37.6564 51.3843C38.4689 51.3843 39.0952 52.108 38.989 52.9241L38.5106 101.679C38.2618 101.391 37.8965 101.206 37.4842 101.206C37.2336 101.206 37.0005 101.274 36.8004 101.393L36.3238 52.9241C36.2176 52.108 36.8439 51.3843 37.6564 51.3843Z" fill="#5CC9E6"/>
<path d="M32.7677 52.999C33.5802 52.999 34.2065 53.7227 34.1004 54.5388L33.6567 98.9878C33.4079 98.6931 33.0391 98.5048 32.6216 98.5048C32.345 98.5048 32.0892 98.5885 31.8752 98.7298L31.4351 54.5388C31.329 53.7227 31.9553 52.999 32.7677 52.999Z" fill="#5CC9E6"/>
<path d="M27.9401 55.1685C28.7508 55.1685 29.3789 55.8922 29.2728 56.7083L28.8935 93.9743C28.6499 93.6151 28.2411 93.3745 27.7696 93.3745C27.4739 93.3745 27.2025 93.4704 26.9815 93.6291L26.6057 56.7083C26.4996 55.8922 27.1259 55.1685 27.9384 55.1685H27.9401Z" fill="#5CC9E6"/>
<path d="M23.0931 57.7476C23.9056 57.7476 24.5319 58.4713 24.4258 59.2874L24.1231 88.4533C23.883 88.0661 23.4602 87.8046 22.9679 87.8046C22.6164 87.8046 22.2998 87.9388 22.0615 88.1551L21.7622 59.2874C21.6561 58.4713 22.2824 57.7476 23.0949 57.7476H23.0931Z" fill="#5CC9E6"/>
<path d="M18.2653 60.8568C19.076 60.8568 19.704 61.5805 19.5979 62.3966L19.3787 82.859C19.2378 82.2556 18.7054 81.7952 18.053 81.7952C17.7016 81.7952 17.3832 81.9295 17.1449 82.1475L16.9344 62.3966C16.8282 61.5805 17.4545 60.8568 18.267 60.8568H18.2653Z" fill="#5CC9E6"/>
<path d="M13.3976 64.5208C14.21 64.5208 14.8363 65.2444 14.7302 66.0606L14.605 77.434C14.4553 76.8445 13.9282 76.3964 13.2845 76.3964C12.8304 76.3964 12.432 76.6213 12.1867 76.9614L12.0667 66.0606C11.9606 65.2444 12.5869 64.5208 13.3993 64.5208H13.3976Z" fill="#5CC9E6"/>
<path d="M61.71 103.388C61.4752 103.388 61.2559 103.447 61.0646 103.552L60.5618 50.5839C60.4557 49.7678 61.082 49.0441 61.8944 49.0441C62.7069 49.0441 63.3332 49.7678 63.2271 50.5839L62.7208 103.843C62.4738 103.564 62.1136 103.388 61.71 103.388Z" fill="#5CC9E6"/>
<path d="M56.8824 104.907C56.6545 104.907 56.4405 104.962 56.2526 105.062L55.7342 50.5839C55.628 49.7678 56.2543 49.0441 57.0668 49.0441C57.8793 49.0441 58.5056 49.7678 58.3994 50.5839L57.8793 105.346C57.6322 105.076 57.279 104.905 56.8824 104.905V104.907Z" fill="#5CC9E6"/>
<path d="M90.9376 79.7864C90.5009 79.7864 90.1181 79.9921 89.8694 80.3095L89.6797 61.9241C89.5736 61.108 90.1999 60.3843 91.0124 60.3843C91.8248 60.3843 92.4511 61.108 92.345 61.9241L92.1536 80.5432C91.9309 80.0968 91.4734 79.7846 90.9376 79.7846V79.7864Z" fill="#5CC9E6"/>
<path d="M95.7427 73.9411C95.2747 73.9411 94.8676 74.1782 94.6223 74.5357L94.5266 65.5148C94.4205 64.6987 95.0468 63.975 95.8593 63.975C96.6717 63.975 97.298 64.6987 97.1919 65.5148L97.091 75.1234C96.9971 74.4625 96.4369 73.9393 95.7427 73.9393V73.9411Z" fill="#5CC9E6"/>
<path d="M2.71045 118.763C2.76438 118.665 2.82875 118.575 2.9053 118.493C3.14538 118.235 3.48463 118.069 3.86737 118.069C4.03613 118.069 4.19618 118.1 4.34406 118.16L4.50411 118.236C4.96167 118.493 5.24872 119.014 5.17565 119.583L4.7529 162.25H2.98185L2.55909 119.583C2.52082 119.286 2.57997 119.004 2.71045 118.765V118.763Z" fill="#D9D9D6"/>
<path d="M7.77133 116.815C8.0062 116.596 8.31935 116.46 8.6673 116.46C8.86389 116.46 9.05004 116.503 9.21531 116.58L9.37189 116.667C9.78943 116.936 10.0434 117.433 9.97384 117.972L9.54064 162.246H7.79047L7.35728 117.972C7.31726 117.659 7.38511 117.363 7.53125 117.115C7.59562 117.004 7.67739 116.903 7.76959 116.815H7.77133Z" fill="#D9D9D6"/>
<path d="M12.6044 114.792C12.8375 114.58 13.1437 114.449 13.4864 114.449C13.7474 114.449 13.9909 114.526 14.1945 114.658C14.2014 114.663 14.2084 114.667 14.2154 114.672C14.619 114.944 14.8643 115.432 14.7964 115.963L14.3493 162.25H12.6252L12.1781 115.963C12.1364 115.645 12.2094 115.342 12.3608 115.091C12.4269 114.981 12.5104 114.88 12.6044 114.792Z" fill="#D9D9D6"/>
<path d="M19.0517 113.486C19.4623 113.757 19.7128 114.25 19.6433 114.784L19.1892 162.246H17.4808L17.0267 114.784C17.0006 114.587 17.0197 114.395 17.0737 114.217C17.1485 113.971 17.2911 113.755 17.4808 113.591C17.7104 113.392 18.0079 113.272 18.3367 113.272C18.5977 113.272 18.8395 113.348 19.043 113.479" fill="#D9D9D6"/>
<path d="M32.0232 113.49C32.2372 113.335 32.4999 113.242 32.787 113.242C33.0566 113.242 33.3054 113.324 33.5124 113.464C33.6116 113.53 33.7021 113.61 33.7804 113.701C34.0204 113.978 34.1474 114.357 34.0953 114.756L33.6412 162.25H31.9328L31.4787 114.756C31.4648 114.649 31.4648 114.543 31.4752 114.44C31.5152 114.051 31.7205 113.71 32.0232 113.49Z" fill="#D9D9D6"/>
<path d="M36.9224 113.865C37.1294 113.727 37.3782 113.645 37.6479 113.645C37.9245 113.645 38.1802 113.73 38.3907 113.877C38.4951 113.948 38.5873 114.036 38.6674 114.133C38.8901 114.407 39.0066 114.772 38.9562 115.157L38.5038 162.248H36.7902L36.3814 119.592L36.3396 115.157C36.2717 114.627 36.5171 114.137 36.9224 113.865Z" fill="#D9D9D6"/>
<path d="M41.8093 115.42C41.9971 115.314 42.2146 115.253 42.4477 115.253C42.747 115.253 43.0201 115.352 43.2393 115.52C43.3437 115.598 43.4342 115.692 43.5107 115.799C43.7038 116.065 43.8013 116.405 43.756 116.765L43.3141 162.246H41.5796L41.1377 116.765C41.1186 116.616 41.1238 116.472 41.1499 116.334C41.2247 115.943 41.47 115.609 41.8075 115.418L41.8093 115.42Z" fill="#D9D9D6"/>
<path d="M46.6508 117.018C46.8335 116.918 47.044 116.862 47.2684 116.862C47.5642 116.862 47.8356 116.96 48.0531 117.124C48.2027 117.236 48.3262 117.379 48.4167 117.543C48.5524 117.785 48.615 118.073 48.575 118.374L48.1435 162.248H46.3881L45.9567 118.374C45.9219 118.111 45.9671 117.858 46.068 117.637C46.1898 117.373 46.3916 117.155 46.6474 117.018H46.6508Z" fill="#D9D9D6"/>
<path d="M51.5222 119.023C51.7032 118.927 51.9085 118.873 52.1294 118.873C52.4095 118.873 52.6652 118.96 52.8775 119.108C53.0149 119.204 53.1315 119.325 53.2237 119.464C53.3959 119.724 53.4812 120.047 53.4377 120.385L53.0202 162.246H51.2387L50.8211 120.385C50.7863 120.115 50.8333 119.853 50.9412 119.628C51.0647 119.37 51.2682 119.156 51.5222 119.023Z" fill="#D9D9D6"/>
<path d="M56.409 121.395C56.5673 121.325 56.743 121.286 56.9292 121.286C57.2302 121.286 57.5051 121.388 57.726 121.559C57.8252 121.635 57.9122 121.724 57.9852 121.824C58.1836 122.092 58.2845 122.436 58.2375 122.798L57.8373 162.246H56.0228L55.6227 122.798C55.5844 122.497 55.647 122.207 55.7827 121.963C55.9236 121.712 56.1428 121.51 56.4108 121.395H56.409Z" fill="#D9D9D6"/>
<path d="M61.2629 124.206C61.4178 124.14 61.59 124.103 61.7692 124.103C62.0528 124.103 62.3137 124.194 62.526 124.345C62.606 124.403 62.6791 124.467 62.7435 124.539C62.994 124.818 63.1297 125.205 63.0775 125.615L62.6965 162.248H60.8402L60.4592 125.615C60.414 125.271 60.5027 124.943 60.6819 124.682C60.8245 124.473 61.0246 124.305 61.2612 124.206H61.2629Z" fill="#D9D9D6"/>
<path d="M65.7411 128.037C65.8646 127.932 66.0055 127.849 66.1621 127.795C66.2961 127.748 66.4405 127.723 66.5901 127.723C66.8806 127.723 67.1468 127.819 67.3643 127.978C67.4756 128.06 67.573 128.157 67.6531 128.269C67.8462 128.536 67.9453 128.876 67.8984 129.235L67.5452 162.248H65.635L65.2818 129.235C65.2209 128.761 65.4106 128.32 65.7411 128.037Z" fill="#D9D9D6"/>
<path d="M70.6141 132.032C70.7446 131.928 70.8959 131.847 71.0629 131.799C71.1795 131.764 71.303 131.746 71.43 131.746C71.7188 131.746 71.9833 131.84 72.199 131.997C72.2425 132.029 72.286 132.064 72.3243 132.1C72.627 132.383 72.7975 132.806 72.7383 133.258L72.4182 162.248H70.4436L70.1235 133.258C70.0609 132.768 70.2661 132.313 70.6158 132.032H70.6141Z" fill="#D9D9D6"/>
<path d="M75.5896 135.949C75.6974 135.886 75.8157 135.837 75.941 135.806C76.0401 135.781 76.1445 135.769 76.2507 135.769C76.5377 135.769 76.8004 135.862 77.0144 136.017C77.0457 136.039 77.077 136.064 77.1066 136.09C77.4319 136.373 77.6181 136.812 77.5572 137.281L77.2719 162.248H75.2277L74.9424 137.281C74.871 136.723 75.1459 136.209 75.5896 135.949Z" fill="#D9D9D6"/>
<path d="M80.5288 140.713C80.6176 140.673 80.7115 140.642 80.8089 140.622C80.8942 140.605 80.9812 140.596 81.0699 140.596C81.3413 140.596 81.5918 140.678 81.8006 140.819C81.8075 140.825 81.8128 140.828 81.8197 140.833C82.2112 141.107 82.446 141.588 82.3782 142.108L82.1381 162.248H80.0034L79.7634 142.108C79.6851 141.501 80.0174 140.948 80.5306 140.713H80.5288Z" fill="#D9D9D6"/>
<path d="M86.6022 146.438C87.0162 146.707 87.2685 147.204 87.1989 147.739L87.0162 162.248H84.765L84.5823 147.739C84.4954 147.062 84.9199 146.45 85.534 146.276C85.5879 146.26 85.6436 146.25 85.701 146.241C85.7619 146.232 85.8245 146.227 85.8889 146.227C86.1464 146.227 86.383 146.302 86.5848 146.428" fill="#D9D9D6"/>
<path d="M91.4194 151.652C91.8456 151.917 92.1101 152.421 92.0387 152.967L91.9152 162.246H89.544L89.4204 152.967C89.3265 152.243 89.8188 151.593 90.5026 151.474C90.5356 151.469 90.5687 151.464 90.6017 151.46C90.6435 151.457 90.6852 151.453 90.7287 151.453C90.9618 151.453 91.1793 151.514 91.3672 151.621" fill="#D9D9D6"/>
<path d="M95.4053 157.097C95.4349 157.093 95.4644 157.091 95.494 157.09C95.5131 157.09 95.5323 157.09 95.5497 157.09C95.7393 157.09 95.9168 157.13 96.0786 157.201L96.223 157.276C96.6579 157.54 96.9293 158.049 96.858 158.602L96.8075 162.25H94.2936L94.2431 158.602C94.1457 157.85 94.6816 157.179 95.4053 157.097Z" fill="#D9D9D6"/>
<path d="M22.3156 112.752C22.5435 112.557 22.8392 112.437 23.1663 112.437C23.4273 112.437 23.6673 112.513 23.8709 112.644C23.9231 112.677 23.9735 112.716 24.0205 112.756C24.3476 113.038 24.5355 113.478 24.4746 113.95L24.0153 162.248H22.3173L21.858 113.95C21.8302 113.734 21.8545 113.525 21.9207 113.333C21.9989 113.106 22.1364 112.906 22.3156 112.754V112.752Z" fill="#D9D9D6"/>
<path d="M27.1781 112.736C27.4043 112.552 27.6914 112.438 28.008 112.438C28.2655 112.438 28.5038 112.513 28.7056 112.641C28.7683 112.681 28.8274 112.726 28.8831 112.777C29.1962 113.059 29.3754 113.49 29.3163 113.95L28.857 162.248H27.159L26.7554 119.801L26.6997 113.95C26.6371 113.467 26.8354 113.017 27.1781 112.736Z" fill="#D9D9D6"/>
<path d="M206.435 111.333C206.654 111.022 206.995 110.813 207.455 110.813C208.243 110.813 208.864 111.551 208.763 112.325L208.279 162.246H206.632C206.632 162.246 206.148 112.332 206.148 112.325C206.145 111.964 206.242 111.606 206.437 111.331L206.435 111.333Z" fill="#D9D9D6"/>
<path d="M201.677 112.864C201.896 112.597 202.218 112.422 202.636 112.422C203.491 112.422 203.951 113.165 203.944 113.934L203.469 162.248H201.802C201.802 162.248 201.327 113.941 201.327 113.934C201.324 113.539 201.442 113.148 201.677 112.864Z" fill="#D9D9D6"/>
<path d="M196.867 114.801C197.101 114.574 197.42 114.433 197.775 114.433C198.618 114.433 199.09 115.188 199.083 115.945L198.622 162.246H196.929C196.929 162.246 196.468 115.989 196.468 115.945C196.463 115.492 196.583 115.159 196.868 114.801H196.867Z" fill="#D9D9D6"/>
<path d="M192.075 117.215C192.456 116.841 193.036 116.691 193.561 117.011C194.095 117.335 194.29 117.75 194.283 118.36L193.838 162.248H192.114L191.668 118.36C191.611 117.921 191.787 117.502 192.079 117.215H192.075Z" fill="#D9D9D6"/>
<path d="M187.209 120.068C187.428 119.822 187.738 119.663 188.133 119.663C188.965 119.663 189.448 120.441 189.441 121.175L189.015 162.248H187.251C187.251 162.248 186.825 121.178 186.825 121.175C186.821 120.763 186.952 120.355 187.209 120.068Z" fill="#D9D9D6"/>
<path d="M182.453 123.63C182.677 123.398 182.992 123.283 183.314 123.283C184.158 123.283 184.631 124.047 184.622 124.795L184.222 162.248H182.406L182.006 124.795C181.95 124.361 182.141 123.977 182.427 123.658C182.435 123.649 182.444 123.639 182.453 123.63Z" fill="#D9D9D6"/>
<path d="M177.658 127.615C177.891 127.407 178.201 127.292 178.573 127.338C179.285 127.425 179.876 128.088 179.781 128.818L179.412 162.248H177.535C177.535 162.248 177.166 128.839 177.166 128.818C177.161 128.363 177.336 127.901 177.658 127.615Z" fill="#D9D9D6"/>
<path d="M172.813 131.635C173.039 131.444 173.331 131.329 173.652 131.328C174.501 131.328 174.97 132.084 174.962 132.84L174.626 162.246H172.683C172.683 162.246 172.347 132.86 172.347 132.84C172.342 132.327 172.509 132.043 172.815 131.633L172.813 131.635Z" fill="#D9D9D6"/>
<path d="M168.029 136.449C168.251 136.268 168.532 136.156 168.834 136.156C169.694 136.156 170.151 136.906 170.143 137.668C170.143 137.67 169.849 162.248 169.849 162.248H167.82L167.526 137.668C167.465 137.197 167.677 136.735 168.029 136.449Z" fill="#D9D9D6"/>
<path d="M163.201 142.08C163.425 141.897 163.705 141.786 164.012 141.786C164.033 141.786 164.052 141.786 164.073 141.786C164.831 141.819 165.417 142.546 165.32 143.296L165.082 162.244H162.942L162.703 143.296C162.642 142.821 162.851 142.363 163.201 142.077V142.08Z" fill="#D9D9D6"/>
<path d="M148.818 157.682C148.98 157.574 149.173 157.503 149.401 157.482C150.231 157.405 150.939 158.16 150.833 158.989L150.784 162.25H148.265C148.265 162.25 148.216 158.99 148.216 158.989C148.21 158.469 148.41 157.958 148.82 157.684L148.818 157.682Z" fill="#D9D9D6"/>
<path d="M153.584 152.901C153.761 152.763 153.982 152.674 154.248 152.653C155.069 152.589 155.765 153.349 155.661 154.162L155.548 162.25H153.159C153.159 162.25 153.046 154.163 153.046 154.162C153.039 153.67 153.218 153.185 153.585 152.903L153.584 152.901Z" fill="#D9D9D6"/>
<path d="M158.441 147.24C158.796 146.909 159.483 146.989 159.873 147.221C160.348 147.504 160.487 148.016 160.482 148.529C160.482 148.531 160.299 162.248 160.299 162.248H158.046C158.046 162.248 157.863 148.539 157.863 148.529C157.857 147.967 158.025 147.629 158.441 147.24Z" fill="#D9D9D6"/>
<path d="M246.037 113.629C246.834 113.629 247.45 114.341 247.345 115.141L246.879 162.248H245.197L244.73 115.141C244.626 114.339 245.242 113.629 246.039 113.629H246.037Z" fill="#D9D9D6"/>
<path d="M240.68 112.109C240.826 112.053 240.984 112.021 241.15 112.021C241.569 112.021 241.938 112.219 242.18 112.524C242.288 112.66 242.368 112.817 242.416 112.986C242.467 113.158 242.482 113.343 242.458 113.535L241.981 162.25H240.318L239.841 113.535C239.796 113.183 239.888 112.85 240.075 112.585C240.224 112.372 240.433 112.205 240.68 112.11V112.109Z" fill="#D9D9D6"/>
<path d="M235.781 110.239C235.938 110.173 236.108 110.136 236.291 110.136C236.752 110.136 237.15 110.374 237.387 110.729C237.448 110.822 237.498 110.923 237.536 111.029C237.603 111.221 237.629 111.43 237.601 111.648L237.112 162.248H235.471L234.983 111.648C234.934 111.27 235.045 110.911 235.261 110.639C235.398 110.466 235.576 110.326 235.783 110.239H235.781Z" fill="#D9D9D6"/>
<path d="M230.884 109.026C231.082 108.904 231.315 108.832 231.567 108.832C231.983 108.832 232.349 109.026 232.589 109.324C232.611 109.353 232.634 109.383 232.655 109.414C232.832 109.676 232.919 110.002 232.874 110.344L232.378 162.246H230.755L230.259 110.344C230.216 110.011 230.297 109.693 230.464 109.435C230.572 109.27 230.715 109.128 230.884 109.024V109.026Z" fill="#D9D9D6"/>
<path d="M216.195 109.182C216.432 108.949 216.755 108.801 217.117 108.801C217.434 108.801 217.723 108.914 217.949 109.099L218.154 109.31C218.366 109.582 218.474 109.938 218.425 110.312L217.93 162.246H216.306L215.811 110.312C215.764 109.953 215.863 109.613 216.056 109.346C216.099 109.287 216.146 109.231 216.199 109.181L216.195 109.182Z" fill="#D9D9D6"/>
<path d="M211.294 109.625C211.534 109.367 211.874 109.203 212.255 109.203C212.578 109.203 212.872 109.32 213.1 109.514L213.337 109.775C213.518 110.039 213.608 110.368 213.563 110.715L213.069 162.246H211.44L210.946 110.715C210.892 110.302 211.032 109.913 211.286 109.634C211.287 109.631 211.291 109.629 211.293 109.625H211.294Z" fill="#D9D9D6"/>
<path d="M225.985 108.236C226.197 108.086 226.456 107.997 226.736 107.997C227.173 107.997 227.554 108.209 227.792 108.534C227.808 108.555 227.822 108.576 227.836 108.598C228.004 108.856 228.086 109.176 228.043 109.51L227.542 162.248H225.927L225.426 109.51C225.374 109.111 225.501 108.734 225.739 108.457C225.811 108.373 225.892 108.3 225.983 108.236H225.985Z" fill="#D9D9D6"/>
<path d="M223.165 108.593C223.335 108.851 223.419 109.172 223.375 109.509L222.874 162.246H221.26L220.758 109.509C220.708 109.123 220.825 108.761 221.047 108.487C221.11 108.41 221.181 108.338 221.26 108.277C221.482 108.103 221.761 107.997 222.067 107.997C222.46 107.997 222.808 108.169 223.048 108.441L223.165 108.593Z" fill="#D9D9D6"/>
<path d="M185.55 22.4381H187.208V31.3457C187.208 32.7303 186.2 33.6598 184.802 33.6598H184.151V32.0956H184.622C185.191 32.0956 185.55 31.834 185.55 31.2149V22.4381ZM185.55 19.0969H187.208V20.7588H185.55V19.0969Z" fill="white"/>
<path d="M189.936 25.8282C189.969 24.5726 190.699 23.9047 191.675 23.9047C192.651 23.9047 193.366 24.5726 193.415 25.8282H189.936ZM195.075 27.1971V25.8282C195.075 23.6937 193.499 22.3405 191.677 22.3405C190.083 22.3405 188.279 23.3833 188.279 26.5938C188.279 29.9838 190.247 30.7982 191.938 30.7982C193.044 30.7982 194.1 30.4076 194.913 29.4624L193.709 28.4353C193.222 28.941 192.538 29.234 191.905 29.234C190.767 29.234 189.937 28.5504 189.937 27.1971H195.075Z" fill="white"/>
<path d="M196.388 19.927H198.046V22.4364H199.25V23.7077H198.046V28.5155C198.046 28.9724 198.225 29.1345 198.631 29.1345H199.248V30.6988H198.387C197.232 30.6988 196.388 29.9646 196.388 28.6619V23.7077H195.558V22.4364H196.388V19.927Z" fill="white"/>
<path d="M204.762 25.5509C206.063 25.5509 206.648 26.3827 206.648 27.2947C206.648 28.2068 206.061 29.0386 204.762 29.0386H202.063V25.5509H204.762ZM200.306 30.7005H205.184C206.924 30.7005 208.405 29.4135 208.405 27.4081C208.405 26.2345 207.787 25.0277 206.519 24.7348V24.7016C207.867 24.0983 208.225 23.1688 208.225 22.2079C208.225 20.3821 207.055 19.0952 204.795 19.0952H200.308V30.6987M204.6 20.6611C205.868 20.6611 206.47 21.4267 206.47 22.323C206.47 23.2194 205.868 23.9849 204.6 23.9849H202.063V20.6611H204.6Z" fill="white"/>
<path d="M209.358 19.0969H211.016V28.566C211.016 28.941 211.228 29.1363 211.634 29.1363H212.202V30.7005H211.47C210.266 30.7005 209.356 30.1791 209.356 28.6968V19.0969H209.358Z" fill="white"/>
<path d="M212.902 22.4381H214.56V27.3593C214.56 28.484 215.259 29.1362 216.202 29.1362C217.145 29.1362 217.829 28.484 217.829 27.3593V22.4381H219.487V30.7005H217.829V29.8198H217.796C217.276 30.472 216.527 30.7981 215.666 30.7981C214.365 30.7981 212.902 29.8041 212.902 27.9295V22.4381Z" fill="white"/>
<path d="M222.037 25.8282C222.07 24.5726 222.801 23.9047 223.777 23.9047C224.753 23.9047 225.468 24.5726 225.517 25.8282H222.037ZM227.175 27.1971V25.8282C227.175 23.6937 225.597 22.3405 223.777 22.3405C222.183 22.3405 220.379 23.3833 220.379 26.5938C220.379 29.9838 222.347 30.7982 224.038 30.7982C225.144 30.7982 226.2 30.4076 227.013 29.4624L225.809 28.4353C225.32 28.941 224.638 29.234 224.005 29.234C222.867 29.234 222.037 28.5504 222.037 27.1971H227.175Z" fill="white"/>
<path d="M227.78 22.2952C228.185 22.2952 228.514 22.6248 228.514 23.0311C228.514 23.4374 228.185 23.767 227.78 23.767C227.375 23.767 227.046 23.4374 227.046 23.0311C227.046 22.6248 227.375 22.2952 227.78 22.2952ZM227.78 23.6188C228.111 23.6188 228.356 23.3729 228.356 23.0293C228.356 22.6858 228.111 22.4399 227.78 22.4399C227.45 22.4399 227.204 22.6858 227.204 23.0293C227.204 23.3729 227.45 23.6188 227.78 23.6188ZM227.502 22.5812H227.825C228.022 22.5812 228.119 22.6596 228.119 22.8375C228.119 23.0154 228.02 23.0729 227.9 23.0869L228.145 23.4374H227.975L227.73 23.0904H227.646V23.4374H227.5V22.5812H227.502ZM227.648 22.9561H227.749C227.867 22.9561 227.973 22.9474 227.973 22.8358C227.973 22.7364 227.876 22.7137 227.78 22.7137H227.646V22.9561H227.648Z" fill="white"/>
<path d="M205.115 34.4969C206.205 34.4969 206.727 34.9119 206.727 35.6932C206.727 36.1814 206.409 36.6296 205.955 36.7377C206.545 36.8459 206.877 37.24 206.877 37.8381C206.877 38.5165 206.463 39.1826 205.264 39.1826H203.686V34.4969H205.116H205.115ZM204.267 36.4866H205.215C205.873 36.4866 206.143 36.1535 206.143 35.6914C206.143 35.2764 205.932 35.02 205.113 35.02H204.266V36.4866H204.267ZM204.267 38.6525H205.262C205.967 38.6525 206.292 38.3473 206.292 37.8381C206.292 37.2748 205.927 37.0168 205.155 37.0168H204.267V38.6542V38.6525Z" fill="white"/>
<path d="M210.099 39.1826H209.558V38.8496C209.389 39.1076 209.151 39.2367 208.65 39.2367C207.924 39.2367 207.416 38.8565 207.416 37.9061V35.7874H207.959V37.8992C207.959 38.5845 208.331 38.7345 208.732 38.7345C209.24 38.7345 209.558 38.3752 209.558 37.9061V35.7874H210.099V39.1826Z" fill="white"/>
<path d="M212.712 36.5808C212.529 36.3436 212.34 36.2337 211.872 36.2337C211.472 36.2337 211.214 36.3907 211.214 36.6889C211.214 37.076 211.553 37.1911 212.001 37.2242C212.637 37.2731 213.22 37.4544 213.22 38.2357C213.22 38.8268 212.82 39.2332 211.947 39.2332C211.256 39.2332 210.898 39.0222 210.64 38.6699L211.04 38.3856C211.223 38.6298 211.467 38.7327 211.955 38.7327C212.409 38.7327 212.681 38.5548 212.681 38.2496C212.681 37.8834 212.463 37.7544 211.807 37.7073C211.239 37.6672 210.677 37.4352 210.677 36.6959C210.677 36.1326 211.084 35.7315 211.889 35.7315C212.437 35.7315 212.858 35.8728 213.123 36.2948L212.716 36.579L212.712 36.5808Z" fill="white"/>
<path d="M213.862 34.4969H214.471V35.109H213.862V34.4969ZM213.895 35.7873H214.436V39.1826H213.895V35.7873Z" fill="white"/>
<path d="M215.249 35.7873H215.791V36.1204C215.96 35.8623 216.197 35.7332 216.699 35.7332C217.425 35.7332 217.933 36.1134 217.933 37.0638V39.1826H217.392V37.0707C217.392 36.3837 217.02 36.2354 216.619 36.2354C216.111 36.2354 215.793 36.5964 215.793 37.0638V39.1826H215.25V35.7873H215.249Z" fill="white"/>
<path d="M221.106 38.6664C220.87 39.0797 220.51 39.2366 219.922 39.2366C219.013 39.2366 218.472 38.6454 218.472 37.702V37.2539C218.472 36.2895 218.926 35.7332 219.814 35.7332C220.701 35.7332 221.155 36.2825 221.155 37.2539V37.6079H219.013V37.7038C219.013 38.2862 219.292 38.7483 219.88 38.7483C220.32 38.7483 220.544 38.6193 220.685 38.3682L221.105 38.6681L221.106 38.6664ZM219.013 37.1318H220.605C220.579 36.5615 220.327 36.2215 219.812 36.2215C219.297 36.2215 219.047 36.5685 219.012 37.1318H219.013Z" fill="white"/>
<path d="M223.679 36.5808C223.497 36.3436 223.307 36.2337 222.839 36.2337C222.439 36.2337 222.182 36.3907 222.182 36.6889C222.182 37.076 222.521 37.1911 222.968 37.2242C223.605 37.2731 224.187 37.4544 224.187 38.2357C224.187 38.8268 223.787 39.2332 222.914 39.2332C222.223 39.2332 221.865 39.0222 221.607 38.6699L222.008 38.3856C222.19 38.6298 222.434 38.7327 222.923 38.7327C223.377 38.7327 223.648 38.5548 223.648 38.2496C223.648 37.8834 223.431 37.7544 222.775 37.7073C222.206 37.6672 221.644 37.4352 221.644 36.6959C221.644 36.1326 222.051 35.7315 222.857 35.7315C223.405 35.7315 223.826 35.8728 224.09 36.2948L223.683 36.579L223.679 36.5808Z" fill="white"/>
<path d="M226.667 36.5808C226.484 36.3436 226.294 36.2337 225.826 36.2337C225.426 36.2337 225.169 36.3907 225.169 36.6889C225.169 37.076 225.508 37.1911 225.955 37.2242C226.592 37.2731 227.175 37.4544 227.175 38.2357C227.175 38.8268 226.774 39.2332 225.901 39.2332C225.21 39.2332 224.852 39.0222 224.594 38.6699L224.995 38.3856C225.177 38.6298 225.421 38.7327 225.91 38.7327C226.364 38.7327 226.635 38.5548 226.635 38.2496C226.635 37.8834 226.418 37.7544 225.762 37.7073C225.193 37.6672 224.631 37.4352 224.631 36.6959C224.631 36.1326 225.038 35.7315 225.844 35.7315C226.392 35.7315 226.813 35.8728 227.077 36.2948L226.67 36.579L226.667 36.5808Z" fill="white"/>
<path d="M44.4432 22.4417H39.9547C40.1338 22.5428 40.3617 22.9282 40.3617 23.2281V28.8765C40.3565 29.1816 40.0869 29.581 39.9512 29.635H43.702C43.582 29.5862 43.2915 29.2026 43.2915 28.8643V27.0158H44.7163C45.6262 27.0158 47.3503 26.6792 47.3503 24.693C47.3503 23.202 46.3447 22.4416 44.4414 22.4434M43.2949 26.2432V23.2316C43.97 23.2246 44.7494 23.2578 44.7494 24.747C44.7494 26.2363 43.7925 26.2432 43.2949 26.2432Z" fill="white"/>
<path d="M52.2232 22.2882C49.8363 22.2882 47.9087 23.692 47.9087 26.0288C47.9087 26.9983 48.3697 29.7955 52.2789 29.7955C54.558 29.7955 56.5935 28.7038 56.5935 26.0288C56.5935 23.8925 54.9459 22.2882 52.2215 22.2882M52.2667 28.9863C51.496 28.9863 50.8123 28.0865 50.8123 26.0462C50.8123 24.1681 51.296 23.1043 52.2441 23.1043C53.2445 23.1043 53.7229 24.1158 53.7229 26.0462C53.7229 27.7604 53.3175 28.9863 52.2667 28.9863Z" fill="white"/>
<path d="M61.5779 22.4417H57.0911C57.2703 22.5428 57.4982 22.9282 57.4982 23.2281V28.8765C57.4947 29.1816 57.2233 29.581 57.0894 29.635H60.8402C60.7219 29.5862 60.4297 29.2026 60.4297 28.8643V27.0158H61.8545C62.7644 27.0158 64.4885 26.6792 64.4885 24.693C64.4885 23.202 63.4864 22.4416 61.5796 22.4434M60.4297 26.2432V23.2316C61.1012 23.2246 61.8841 23.2578 61.8841 24.747C61.8841 26.2363 60.9272 26.2432 60.4297 26.2432Z" fill="white"/>
<path d="M79.0083 28.5887H76.7031V23.1497C76.7258 22.834 76.9484 22.5358 77.1259 22.4417H73.3768C73.5577 22.5288 73.7821 22.9386 73.7821 23.2386V28.8852C73.7787 29.1938 73.509 29.581 73.3733 29.6333H79.6642L80.3688 28.001C80.0991 28.3184 79.7703 28.5504 79.0083 28.5887Z" fill="white"/>
<path d="M91.9953 26.0705L94.1352 29.6332H97.8721C97.6059 29.5355 97.0614 28.7212 96.8404 28.3933C96.6195 28.0655 96.0628 27.3034 95.9288 27.1221C95.5043 26.5396 95.2764 26.2815 95.085 26.1699C95.0937 26.1699 95.085 26.1647 95.085 26.1577C96.0036 25.924 96.4977 25.2003 96.496 24.2656C96.4925 23.3588 95.934 22.4398 94.1543 22.4398H88.5958C88.9299 22.7834 89.0116 23.038 89.0134 23.5733V29.0229C89.0134 29.1118 89.0168 29.4274 88.822 29.4274C88.7124 29.4257 88.6515 29.3873 88.561 29.2286L85.7618 22.4398H82.6477C82.7555 22.6125 83.0061 22.8514 82.8425 23.3117L80.6139 28.6985C80.3686 29.2269 80.1807 29.4117 79.9285 29.6315H81.7778C81.7152 29.4972 81.6386 29.124 81.8196 28.6392L82.1362 27.7969H84.8432L85.1703 28.6915C85.2973 29.0072 85.2573 29.3594 85.0729 29.6297H92.3467C92.2615 29.5652 91.9692 29.3367 91.9692 28.9479V26.067H91.9901L91.9953 26.0705ZM91.9848 23.2507H92.4406C93.5419 23.2507 93.6445 23.9674 93.6463 24.5481C93.6463 25.3416 93.1887 25.9031 92.385 25.9031H91.9831V23.2507H91.9848ZM82.4754 26.9198L83.5141 24.2011H83.5175L84.5318 26.9198H82.4772H82.4754Z" fill="white"/>
<path d="M71.0506 22.4417C71.2316 22.5672 71.416 22.8706 71.4247 23.1706L71.416 26.8763C71.4125 27.6854 70.9219 28.5504 69.7163 28.5434C68.7873 28.5381 68.0705 27.9644 68.0653 26.8536V23.2647C68.067 23.0572 68.1453 22.637 68.4689 22.4417H64.7319C64.9094 22.5812 65.1321 22.9125 65.146 23.2334V26.9338C65.1321 28.5225 66.4056 29.8234 68.8847 29.8129C70.2434 29.8077 71.1498 29.5269 71.7639 28.8765C72.1519 28.4649 72.5259 27.8162 72.5381 26.8571L72.552 23.263C72.552 22.9822 72.6877 22.6649 72.9557 22.4434H71.0506V22.4417Z" fill="white"/>
<path d="M100.997 28.444C100.997 29.159 100.428 29.7362 99.6954 29.7362C98.9629 29.7362 98.394 29.159 98.394 28.444C98.394 27.729 98.9577 27.1518 99.6954 27.1518C100.433 27.1518 100.997 27.7168 100.997 28.444ZM99.6954 27.368C99.0969 27.368 98.6219 27.8371 98.6219 28.444C98.6219 29.0508 99.0969 29.5199 99.6954 29.5199C100.294 29.5199 100.769 29.0386 100.769 28.444C100.769 27.8493 100.303 27.368 99.6954 27.368ZM99.1213 27.7046C99.1752 27.7098 99.2535 27.7168 99.3735 27.7168C99.4327 27.7168 99.7093 27.7046 99.7684 27.7046C99.9911 27.7046 100.261 27.7761 100.261 28.0412C100.261 28.2818 100.062 28.4021 99.8345 28.4318C100.026 28.6672 100.224 28.9113 100.423 29.1468C100.351 29.1415 100.29 29.1346 100.219 29.1346C100.141 29.1346 100.099 29.1398 100.026 29.1468C99.8467 28.9131 99.6971 28.6916 99.504 28.4754H99.4501C99.4501 28.6916 99.4553 28.9201 99.4622 29.1468C99.4031 29.1415 99.3492 29.1346 99.2883 29.1346C99.2343 29.1346 99.1804 29.1398 99.1143 29.1468C99.1334 28.7439 99.1334 28.5172 99.1334 28.301C99.1334 28.0848 99.1334 27.9766 99.1213 27.7063M99.4501 28.3359C99.497 28.3428 99.551 28.3428 99.6066 28.3428C99.8398 28.3428 99.9302 28.1929 99.9302 28.0725C99.9302 27.886 99.7928 27.8371 99.6119 27.8371C99.5875 27.8371 99.4866 27.8424 99.4501 27.8493V28.3359Z" fill="white"/>
<path d="M37.6095 25.9904V17.7856L21.2229 17.7873V26.0026V34.2127H37.6095V26.0009V25.9921V25.9904ZM32.2302 20.3124V22.0074C31.9171 21.0849 31.3238 20.3525 30.4452 19.7335C31.0768 19.8381 31.677 20.0352 32.2302 20.3107V20.3124ZM29.4049 19.6428V23.0067C29.1683 21.7616 28.5141 20.8024 27.4477 19.9584C28.0635 19.7544 28.7194 19.6445 29.4049 19.6445V19.6428ZM27.3816 27.164V20.9158C29.2274 22.1191 29.3857 25.7637 27.3816 27.164ZM24.8433 29.3735V26.1683C26.3081 26.9582 26.1777 28.7056 24.8433 29.3735ZM24.8416 22.5707C26.1411 23.0956 26.3551 24.8325 24.8416 25.6033V22.5707ZM25.661 25.8631L25.6575 25.8596C25.6575 25.8596 26.3899 25.4132 26.5795 24.4977V27.2268C26.4195 26.395 25.7949 25.9555 25.661 25.8614V25.8631ZM23.0601 26.0026C23.0601 24.7592 23.4219 23.6013 24.0361 22.6213V29.377C23.4219 28.4004 23.0583 27.2425 23.0601 26.0009V26.0026ZM26.5778 20.3142V23.6589C26.3673 22.5585 25.3548 21.9743 24.6885 21.7598C25.2191 21.1669 25.8576 20.6734 26.5778 20.3142ZM26.5795 31.6876C25.8663 31.3283 25.2313 30.8435 24.7024 30.2576C24.7232 30.2506 24.7354 30.2454 24.7511 30.2419H24.7546C24.805 30.2227 24.8433 30.2123 24.8433 30.2123V30.207C25.6697 29.8984 26.4108 29.1503 26.5795 28.0778V31.6893V31.6876ZM27.3816 32.0224V28.0255C27.853 27.7639 29.0482 26.892 29.4049 25.1237V32.3572C28.6968 32.3572 28.0166 32.2369 27.3816 32.0206V32.0224ZM30.2052 20.499C32.3381 21.8278 32.2598 25.6329 30.2052 27.1309V20.499ZM30.2069 32.3014V28.0098C30.6905 27.7517 31.7396 26.9059 32.2302 25.394V31.6858C31.6074 31.9962 30.9271 32.209 30.2069 32.2997V32.3014ZM33.0322 21.4948C34.5075 22.5463 34.7546 25.2283 33.0322 26.6269V21.4948ZM33.034 31.2097V27.3367L34.3353 29.9978C33.9578 30.4616 33.5194 30.8679 33.034 31.208V31.2097ZM34.8555 29.2409L33.7281 26.9792C34.2883 26.4194 34.9668 25.5998 34.9668 24.2204C34.9668 23.4793 34.8502 22.8933 34.6189 22.3841C35.3322 23.413 35.748 24.6564 35.748 25.9991C35.748 27.1849 35.4157 28.2905 34.8555 29.2409Z" fill="white"/>
<path d="M231.077 142.483C230.946 142.356 230.795 142.255 230.626 142.183C230.447 142.106 230.256 142.068 230.059 142.068C229.862 142.068 229.673 142.106 229.495 142.18C229.429 142.208 229.367 142.241 229.308 142.276V138.176C229.308 137.599 228.84 137.13 228.264 137.13H227.411C226.835 137.13 226.367 137.599 226.367 138.176V138.626C226.306 138.622 226.246 138.621 226.183 138.621C225.767 138.621 225.37 138.701 225.003 138.859C224.908 138.901 224.814 138.948 224.722 139.001C224.607 138.887 224.466 138.8 224.304 138.75C224.179 138.709 224.067 138.683 223.954 138.664C223.793 138.636 223.615 138.622 223.429 138.622C223.124 138.622 222.836 138.669 222.566 138.76C222.477 138.736 222.387 138.723 222.295 138.723H221.52C221.312 138.723 221.117 138.786 220.953 138.893C220.79 138.786 220.595 138.723 220.386 138.723H219.534C219.426 138.723 219.321 138.739 219.221 138.77C218.942 138.671 218.634 138.621 218.305 138.621C217.89 138.621 217.491 138.701 217.126 138.859C216.879 138.966 216.653 139.102 216.446 139.267C216.228 139.102 215.985 138.962 215.722 138.856C215.341 138.701 214.925 138.621 214.49 138.621C214.055 138.621 213.639 138.699 213.258 138.856C213.133 138.907 213.013 138.966 212.898 139.03C212.78 138.903 212.629 138.804 212.453 138.748C212.328 138.708 212.216 138.682 212.103 138.662C211.941 138.634 211.764 138.621 211.578 138.621C211.273 138.621 210.985 138.668 210.715 138.758C210.626 138.734 210.536 138.722 210.444 138.722H209.669C209.264 138.722 208.911 138.955 208.739 139.295C208.532 139.116 208.298 138.969 208.043 138.856C207.684 138.699 207.291 138.619 206.875 138.619C206.46 138.619 206.049 138.695 205.684 138.849C205.47 138.938 205.271 139.051 205.089 139.184C204.901 138.905 204.582 138.72 204.222 138.72H203.897V138.58C203.897 138.003 203.429 137.534 202.853 137.534H201.997C201.421 137.534 200.953 138.003 200.953 138.58V138.753C200.812 138.79 200.682 138.856 200.569 138.947C200.402 138.875 200.226 138.814 200.042 138.765C199.683 138.669 199.302 138.622 198.906 138.622C198.556 138.622 198.231 138.666 197.938 138.753C197.637 138.842 197.369 138.971 197.14 139.138C196.948 138.884 196.646 138.72 196.305 138.72H195.452C195.344 138.72 195.24 138.736 195.139 138.767C194.861 138.668 194.553 138.617 194.224 138.617C193.808 138.617 193.41 138.697 193.044 138.856C192.683 139.013 192.361 139.234 192.088 139.515C192.065 139.54 192.041 139.564 192.018 139.588C191.955 139.508 191.889 139.431 191.818 139.36C191.581 139.123 191.301 138.936 190.983 138.807C190.67 138.68 190.33 138.617 189.974 138.617C189.802 138.617 189.622 138.631 189.44 138.661C189.229 138.694 189.022 138.753 188.824 138.838C188.746 138.872 188.669 138.91 188.592 138.952C188.582 138.945 188.57 138.94 188.559 138.933C188.18 138.723 187.75 138.617 187.284 138.617C187.129 138.617 186.968 138.631 186.808 138.659C186.675 138.682 186.545 138.715 186.414 138.762C186.32 138.734 186.223 138.72 186.124 138.72H185.303C184.727 138.72 184.259 139.189 184.259 139.766V143.685C184.259 144.262 184.727 144.731 185.303 144.731H186.132C186.538 144.731 186.889 144.499 187.063 144.159C187.235 144.497 187.589 144.731 187.992 144.731H188.822C189.227 144.731 189.579 144.499 189.753 144.159C189.925 144.497 190.278 144.731 190.684 144.731H191.513C191.894 144.731 192.229 144.525 192.411 144.22C192.606 144.37 192.82 144.496 193.05 144.595C193.417 144.754 193.813 144.834 194.229 144.834C194.56 144.834 194.868 144.783 195.146 144.684C195.245 144.715 195.35 144.731 195.457 144.731H196.31C196.592 144.731 196.846 144.621 197.034 144.44C197.079 144.462 197.126 144.483 197.173 144.503C197.378 144.588 197.583 144.658 197.785 144.708C197.984 144.757 198.178 144.79 198.363 144.808C198.53 144.823 198.676 144.83 198.81 144.83C199.184 144.83 199.534 144.785 199.847 144.696C200.191 144.598 200.494 144.454 200.748 144.264C200.964 144.101 201.145 143.91 201.286 143.692C201.381 143.864 201.498 144.019 201.635 144.157C202.082 144.605 202.679 144.834 203.408 144.834C203.784 144.834 204.134 144.771 204.45 144.649C204.622 144.583 204.789 144.504 204.949 144.414C205.016 144.377 205.076 144.332 205.132 144.283C205.318 144.415 205.522 144.525 205.739 144.612C206.106 144.761 206.508 144.834 206.934 144.834C207.333 144.834 207.719 144.778 208.086 144.666C208.349 144.586 208.601 144.468 208.841 144.314C209.033 144.569 209.335 144.733 209.676 144.733H210.459C211.035 144.733 211.503 144.264 211.503 143.686V142.703C211.531 142.788 211.56 142.872 211.595 142.954C211.755 143.331 211.98 143.664 212.262 143.943C212.545 144.222 212.883 144.443 213.265 144.6C213.646 144.755 214.062 144.836 214.497 144.836C214.932 144.836 215.348 144.757 215.729 144.6C215.992 144.494 216.235 144.354 216.453 144.189C216.658 144.354 216.886 144.49 217.133 144.597C217.5 144.755 217.897 144.836 218.312 144.836C218.643 144.836 218.951 144.785 219.229 144.686C219.328 144.717 219.433 144.733 219.541 144.733H220.393C220.602 144.733 220.797 144.67 220.96 144.564C221.124 144.67 221.319 144.733 221.527 144.733H222.31C222.886 144.733 223.354 144.264 223.354 143.686V142.767C223.373 142.827 223.396 142.886 223.418 142.944C223.57 143.322 223.784 143.655 224.055 143.936C224.327 144.217 224.648 144.44 225.012 144.597C225.379 144.755 225.776 144.836 226.192 144.836C226.522 144.836 226.83 144.785 227.108 144.686C227.208 144.717 227.312 144.733 227.42 144.733H228.272C228.542 144.733 228.786 144.63 228.972 144.462C228.994 144.489 229.019 144.515 229.043 144.541C229.175 144.672 229.332 144.775 229.506 144.848C229.683 144.923 229.875 144.959 230.07 144.959C230.264 144.959 230.457 144.921 230.635 144.846C230.807 144.773 230.96 144.672 231.092 144.539C231.223 144.408 231.327 144.257 231.4 144.089C231.48 143.908 231.52 143.713 231.52 143.512C231.52 143.311 231.48 143.114 231.4 142.935C231.326 142.764 231.219 142.612 231.087 142.481L231.077 142.483Z" fill="#1B459C"/>
<path d="M230.673 127.847H230.489C230.444 127.847 230.398 127.85 230.353 127.856C230.341 127.856 230.329 127.852 230.317 127.852C231.211 125.838 231.665 123.69 231.665 121.457C231.665 112.738 224.588 105.646 215.891 105.646C212.582 105.646 209.431 106.656 206.754 108.572C204.076 106.657 200.925 105.646 197.616 105.646C188.918 105.646 181.842 112.74 181.842 121.457C181.842 130.175 188.92 137.269 197.616 137.269C200.925 137.269 204.076 136.259 206.754 134.343C209.431 136.258 212.582 137.269 215.891 137.269C221.124 137.269 226.061 134.608 228.982 130.269C229.16 130.407 229.382 130.491 229.622 130.491H229.751C229.798 130.491 229.845 130.487 229.892 130.48C229.939 130.487 229.986 130.491 230.033 130.491H230.162C230.226 130.491 230.29 130.485 230.353 130.473C230.416 130.485 230.48 130.491 230.544 130.491H230.673C231.249 130.491 231.717 130.022 231.717 129.444V128.893C231.717 128.316 231.249 127.847 230.673 127.847Z" fill="#1B459C"/>
<path d="M191.073 140.104C190.936 139.967 190.774 139.86 190.586 139.784C190.398 139.707 190.191 139.668 189.969 139.668C189.85 139.668 189.727 139.679 189.6 139.7C189.473 139.721 189.348 139.756 189.224 139.808C189.102 139.86 188.986 139.932 188.874 140.022C188.763 140.113 188.667 140.228 188.586 140.368C188.453 140.15 188.276 139.979 188.05 139.855C187.825 139.731 187.568 139.668 187.277 139.668C187.18 139.668 187.079 139.677 186.975 139.695C186.87 139.712 186.767 139.743 186.665 139.787C186.562 139.831 186.465 139.89 186.371 139.965C186.277 140.04 186.192 140.134 186.117 140.249V139.771H185.296V143.69H186.126V141.519C186.126 141.353 186.152 141.205 186.204 141.076C186.256 140.947 186.327 140.839 186.414 140.751C186.503 140.664 186.606 140.598 186.724 140.553C186.842 140.507 186.969 140.485 187.103 140.485C187.382 140.485 187.599 140.574 187.752 140.75C187.907 140.928 187.984 141.18 187.984 141.51V143.69H188.813V141.519C188.813 141.353 188.84 141.205 188.892 141.076C188.944 140.947 189.015 140.839 189.102 140.751C189.191 140.664 189.294 140.598 189.412 140.553C189.53 140.507 189.657 140.485 189.791 140.485C190.07 140.485 190.287 140.574 190.44 140.75C190.595 140.928 190.671 141.18 190.671 141.51V143.69H191.501V141.227C191.501 140.999 191.463 140.788 191.388 140.598C191.313 140.408 191.207 140.242 191.07 140.104H191.073Z" fill="#A7A9AC"/>
<path d="M195.445 140.246C195.309 140.071 195.141 139.932 194.939 139.827C194.737 139.723 194.497 139.67 194.217 139.67C193.937 139.67 193.686 139.721 193.45 139.824C193.213 139.927 193.006 140.068 192.83 140.251C192.653 140.434 192.515 140.65 192.415 140.903C192.314 141.156 192.263 141.432 192.263 141.732C192.263 142.031 192.314 142.307 192.415 142.56C192.515 142.813 192.655 143.029 192.83 143.212C193.008 143.395 193.213 143.536 193.45 143.639C193.686 143.742 193.942 143.793 194.217 143.793C194.492 143.793 194.737 143.74 194.939 143.638C195.141 143.535 195.309 143.395 195.445 143.221V143.692H196.298V139.773H195.445V140.248V140.246ZM195.414 142.229C195.356 142.382 195.276 142.513 195.174 142.624C195.071 142.736 194.946 142.825 194.803 142.888C194.659 142.952 194.499 142.984 194.321 142.984C194.144 142.984 193.972 142.95 193.825 142.884C193.679 142.818 193.558 142.727 193.457 142.614C193.356 142.501 193.279 142.368 193.224 142.215C193.17 142.061 193.142 141.899 193.142 141.728C193.142 141.557 193.17 141.395 193.224 141.241C193.277 141.088 193.356 140.956 193.457 140.842C193.558 140.729 193.681 140.64 193.825 140.572C193.972 140.506 194.137 140.472 194.321 140.472C194.506 140.472 194.659 140.504 194.803 140.568C194.948 140.633 195.071 140.72 195.174 140.832C195.276 140.943 195.358 141.076 195.414 141.228C195.471 141.381 195.499 141.547 195.499 141.726C195.499 141.906 195.471 142.073 195.414 142.225V142.229Z" fill="#A7A9AC"/>
<path d="M200.217 141.723C199.977 141.536 199.645 141.411 199.217 141.348L198.813 141.287C198.723 141.273 198.639 141.257 198.561 141.24C198.483 141.222 198.415 141.198 198.357 141.168C198.3 141.139 198.255 141.1 198.22 141.053C198.185 141.006 198.17 140.95 198.17 140.882C198.17 140.743 198.234 140.631 198.363 140.546C198.491 140.46 198.674 140.417 198.907 140.417C199.029 140.417 199.151 140.427 199.269 140.45C199.387 140.472 199.499 140.499 199.605 140.532C199.711 140.565 199.807 140.601 199.895 140.64C199.982 140.68 200.055 140.717 200.116 140.751L200.483 140.085C200.28 139.954 200.042 139.853 199.77 139.78C199.499 139.709 199.208 139.672 198.9 139.672C198.65 139.672 198.425 139.702 198.227 139.759C198.029 139.818 197.86 139.9 197.719 140.009C197.578 140.117 197.472 140.247 197.397 140.403C197.322 140.558 197.286 140.732 197.286 140.926C197.286 141.241 197.397 141.498 197.622 141.693C197.846 141.888 198.177 142.016 198.611 142.075L199.02 142.127C199.253 142.16 199.426 142.213 199.535 142.284C199.645 142.356 199.699 142.448 199.699 142.56C199.699 142.706 199.624 142.823 199.474 142.91C199.325 142.996 199.104 143.039 198.81 143.039C198.65 143.039 198.505 143.029 198.38 143.006C198.253 142.984 198.138 142.956 198.034 142.919C197.93 142.882 197.836 142.841 197.752 142.792C197.669 142.745 197.592 142.692 197.521 142.638L197.126 143.28C197.267 143.386 197.416 143.472 197.571 143.538C197.726 143.604 197.879 143.655 198.029 143.692C198.178 143.728 198.319 143.753 198.453 143.765C198.587 143.777 198.704 143.784 198.805 143.784C199.085 143.784 199.335 143.753 199.558 143.69C199.779 143.627 199.967 143.54 200.116 143.427C200.268 143.313 200.383 143.179 200.463 143.022C200.543 142.865 200.583 142.692 200.583 142.504C200.583 142.169 200.463 141.908 200.224 141.721L200.217 141.723Z" fill="#A7A9AC"/>
<path d="M208.203 140.239C208.041 140.057 207.846 139.918 207.62 139.817C207.392 139.717 207.143 139.667 206.872 139.667C206.583 139.667 206.32 139.717 206.082 139.817C205.844 139.916 205.64 140.057 205.468 140.239C205.296 140.42 205.163 140.638 205.068 140.891C204.972 141.144 204.925 141.425 204.925 141.73C204.925 142.035 204.974 142.323 205.071 142.575C205.169 142.828 205.306 143.046 205.483 143.226C205.661 143.406 205.871 143.545 206.117 143.643C206.362 143.74 206.632 143.789 206.924 143.789C207.216 143.789 207.503 143.749 207.771 143.667C208.039 143.585 208.293 143.442 208.532 143.238L208.107 142.63C207.943 142.76 207.764 142.861 207.566 142.935C207.369 143.006 207.173 143.043 206.976 143.043C206.837 143.043 206.705 143.024 206.576 142.985C206.447 142.947 206.332 142.888 206.23 142.807C206.127 142.727 206.038 142.624 205.965 142.499C205.892 142.373 205.842 142.221 205.814 142.045H208.702C208.707 141.997 208.711 141.944 208.714 141.89C208.718 141.836 208.718 141.78 208.718 141.726C208.718 141.421 208.672 141.142 208.58 140.889C208.49 140.636 208.363 140.42 208.201 140.239H208.203ZM205.818 141.395C205.84 141.254 205.877 141.123 205.932 141.004C205.986 140.886 206.058 140.783 206.143 140.697C206.228 140.612 206.331 140.546 206.449 140.499C206.567 140.451 206.703 140.429 206.854 140.429C207.126 140.429 207.348 140.513 207.519 140.682C207.691 140.851 207.799 141.088 207.846 141.393H205.818V141.395Z" fill="#A7A9AC"/>
<path d="M219.532 140.246C219.396 140.071 219.227 139.932 219.026 139.827C218.824 139.723 218.584 139.67 218.304 139.67C218.023 139.67 217.773 139.721 217.536 139.824C217.3 139.927 217.093 140.068 216.917 140.251C216.74 140.434 216.602 140.65 216.501 140.903C216.4 141.156 216.35 141.432 216.35 141.732C216.35 142.031 216.4 142.307 216.501 142.56C216.602 142.813 216.741 143.029 216.917 143.212C217.094 143.395 217.3 143.536 217.536 143.639C217.773 143.742 218.029 143.793 218.304 143.793C218.578 143.793 218.824 143.74 219.026 143.638C219.227 143.535 219.396 143.395 219.532 143.221V143.692H220.384V139.773H219.532V140.248V140.246ZM219.499 142.229C219.441 142.382 219.361 142.513 219.259 142.624C219.156 142.736 219.031 142.825 218.888 142.888C218.744 142.952 218.584 142.984 218.406 142.984C218.229 142.984 218.057 142.95 217.91 142.884C217.764 142.818 217.642 142.727 217.542 142.614C217.441 142.501 217.364 142.368 217.308 142.215C217.255 142.061 217.227 141.899 217.227 141.728C217.227 141.557 217.255 141.395 217.308 141.241C217.362 141.088 217.441 140.956 217.542 140.842C217.642 140.729 217.766 140.64 217.91 140.572C218.057 140.506 218.222 140.472 218.406 140.472C218.591 140.472 218.744 140.504 218.888 140.568C219.033 140.633 219.156 140.72 219.259 140.832C219.361 140.943 219.443 141.076 219.499 141.228C219.556 141.381 219.584 141.547 219.584 141.726C219.584 141.906 219.556 142.073 219.499 142.225V142.229Z" fill="#A7A9AC"/>
<path d="M203.874 142.907C203.737 142.959 203.601 142.985 203.469 142.985C203.382 142.985 203.3 142.971 203.225 142.945C203.15 142.917 203.084 142.875 203.029 142.816C202.973 142.757 202.93 142.682 202.896 142.589C202.863 142.497 202.848 142.385 202.848 142.255V140.549H204.217V139.771H202.848V138.586H201.992V139.771H201.212V140.549H201.992V142.27C201.992 142.792 202.115 143.175 202.361 143.421C202.606 143.669 202.952 143.791 203.396 143.791C203.643 143.791 203.865 143.753 204.062 143.676C204.193 143.625 204.313 143.568 204.426 143.505L204.133 142.79C204.052 142.834 203.965 142.874 203.872 142.909L203.874 142.907Z" fill="#A7A9AC"/>
<path d="M211.573 139.668C211.332 139.668 211.117 139.712 210.924 139.799C210.731 139.886 210.569 140.097 210.438 140.284V139.77H209.664V143.688H210.447V141.533C210.447 141.367 210.47 141.217 210.517 141.086C210.564 140.955 210.626 140.846 210.708 140.755C210.79 140.664 210.887 140.596 211.002 140.551C211.117 140.504 211.242 140.481 211.378 140.481C211.48 140.481 211.592 140.493 211.712 140.518C211.773 140.53 211.83 140.546 211.882 140.563L212.134 139.745C212.067 139.724 211.997 139.705 211.926 139.693C211.821 139.675 211.703 139.667 211.573 139.667V139.668Z" fill="#A7A9AC"/>
<path d="M223.427 139.668C223.187 139.668 222.971 139.712 222.778 139.799C222.585 139.886 222.423 140.097 222.293 140.284V139.77H221.519V143.688H222.301V141.533C222.301 141.367 222.324 141.217 222.371 141.086C222.418 140.955 222.481 140.846 222.562 140.755C222.644 140.664 222.742 140.596 222.856 140.551C222.971 140.504 223.096 140.481 223.232 140.481C223.335 140.481 223.446 140.493 223.566 140.518C223.627 140.53 223.685 140.546 223.737 140.563L223.989 139.745C223.921 139.724 223.852 139.705 223.78 139.693C223.676 139.675 223.558 139.667 223.427 139.667V139.668Z" fill="#A7A9AC"/>
<path d="M227.41 138.177V140.244C227.274 140.07 227.105 139.93 226.903 139.825C226.701 139.721 226.461 139.668 226.181 139.668C225.901 139.668 225.651 139.719 225.414 139.822C225.177 139.925 224.97 140.066 224.795 140.249C224.617 140.432 224.48 140.649 224.379 140.901C224.278 141.154 224.228 141.43 224.228 141.73C224.228 142.03 224.278 142.305 224.379 142.558C224.48 142.811 224.619 143.027 224.795 143.21C224.972 143.393 225.177 143.535 225.414 143.637C225.651 143.74 225.906 143.791 226.181 143.791C226.456 143.791 226.701 143.739 226.903 143.636C227.105 143.533 227.274 143.393 227.41 143.219V143.69H228.262V138.179H227.41V138.177ZM227.378 142.228C227.321 142.382 227.241 142.513 227.138 142.624C227.035 142.736 226.91 142.825 226.768 142.888C226.623 142.952 226.463 142.984 226.286 142.984C226.108 142.984 225.936 142.95 225.79 142.884C225.644 142.818 225.522 142.727 225.421 142.614C225.32 142.5 225.244 142.368 225.188 142.214C225.134 142.061 225.106 141.899 225.106 141.728C225.106 141.557 225.134 141.395 225.188 141.241C225.242 141.088 225.32 140.955 225.421 140.842C225.522 140.729 225.645 140.64 225.79 140.572C225.936 140.506 226.101 140.472 226.286 140.472C226.47 140.472 226.623 140.504 226.768 140.568C226.912 140.633 227.035 140.72 227.138 140.832C227.241 140.943 227.323 141.076 227.378 141.227C227.436 141.381 227.463 141.547 227.463 141.726C227.463 141.906 227.436 142.073 227.378 142.225V142.228Z" fill="#A7A9AC"/>
<path d="M213.613 140.825C213.721 140.715 213.852 140.628 214.001 140.567C214.151 140.506 214.313 140.474 214.487 140.474C214.678 140.474 214.855 140.506 215.021 140.567C215.179 140.626 215.318 140.708 215.435 140.814L215.845 140.131C215.692 140.007 215.518 139.906 215.325 139.827C215.068 139.723 214.789 139.67 214.487 139.67C214.184 139.67 213.906 139.723 213.648 139.827C213.391 139.932 213.17 140.077 212.983 140.261C212.797 140.446 212.651 140.663 212.545 140.914C212.439 141.165 212.385 141.437 212.385 141.732C212.385 142.026 212.437 142.298 212.545 142.549C212.651 142.801 212.797 143.018 212.983 143.202C213.17 143.386 213.391 143.529 213.648 143.636C213.906 143.742 214.184 143.793 214.487 143.793C214.789 143.793 215.068 143.74 215.325 143.636C215.518 143.557 215.692 143.456 215.845 143.332L215.435 142.649C215.318 142.753 215.181 142.837 215.021 142.896C214.855 142.957 214.678 142.989 214.487 142.989C214.313 142.989 214.151 142.957 214.001 142.896C213.852 142.835 213.723 142.75 213.613 142.638C213.504 142.528 213.418 142.396 213.356 142.242C213.293 142.089 213.262 141.918 213.262 141.733C213.262 141.548 213.293 141.378 213.356 141.224C213.418 141.071 213.504 140.938 213.613 140.828V140.825Z" fill="#A7A9AC"/>
<path d="M230.059 143.114C230.116 143.114 230.169 143.125 230.219 143.146C230.27 143.167 230.311 143.194 230.35 143.231C230.386 143.268 230.416 143.31 230.437 143.358C230.457 143.407 230.468 143.458 230.468 143.514C230.468 143.569 230.457 143.62 230.437 143.669C230.416 143.718 230.386 143.759 230.35 143.796C230.313 143.833 230.27 143.861 230.219 143.882C230.169 143.902 230.116 143.913 230.059 143.913C230.002 143.913 229.948 143.902 229.897 143.882C229.847 143.861 229.803 143.831 229.767 143.796C229.73 143.759 229.701 143.718 229.68 143.669C229.659 143.62 229.648 143.569 229.648 143.514C229.648 143.458 229.659 143.407 229.68 143.358C229.701 143.31 229.73 143.268 229.767 143.231C229.803 143.194 229.847 143.167 229.897 143.146C229.948 143.125 230.002 143.114 230.059 143.114ZM230.059 143.803C230.099 143.803 230.136 143.796 230.17 143.78C230.205 143.765 230.236 143.746 230.261 143.719C230.287 143.693 230.306 143.664 230.322 143.627C230.337 143.592 230.344 143.554 230.344 143.514C230.344 143.473 230.337 143.437 230.322 143.4C230.306 143.365 230.287 143.334 230.261 143.308C230.235 143.282 230.205 143.261 230.17 143.247C230.136 143.231 230.099 143.224 230.059 143.224C230.019 143.224 229.981 143.231 229.944 143.247C229.909 143.262 229.878 143.282 229.852 143.308C229.826 143.334 229.805 143.364 229.791 143.4C229.775 143.435 229.768 143.473 229.768 143.514C229.768 143.554 229.775 143.592 229.791 143.627C229.805 143.662 229.826 143.693 229.852 143.719C229.878 143.746 229.909 143.766 229.944 143.78C229.979 143.796 230.017 143.803 230.059 143.803ZM230.082 143.337C230.13 143.337 230.167 143.348 230.193 143.371C230.217 143.392 230.231 143.421 230.231 143.458C230.231 143.486 230.223 143.51 230.203 143.529C230.186 143.548 230.16 143.561 230.125 143.566L230.235 143.693H230.116L230.017 143.569H230.005V143.693H229.906V143.339H230.082V143.337ZM230.007 143.423V143.487H230.082C230.097 143.487 230.109 143.486 230.116 143.48C230.125 143.475 230.129 143.468 230.129 143.456C230.129 143.446 230.125 143.437 230.116 143.432C230.108 143.426 230.096 143.423 230.082 143.423H230.007Z" fill="#939CA3"/>
<path d="M201.158 121.457C201.158 116.763 203.345 112.585 206.752 109.88C204.24 107.885 201.068 106.692 197.615 106.692C189.48 106.692 182.884 113.303 182.884 121.457C182.884 129.612 189.48 136.223 197.615 136.223C201.068 136.223 204.24 135.028 206.752 133.035C203.345 130.33 201.158 126.152 201.158 121.457Z" fill="#6C7174"/>
<path d="M201.158 121.457C201.158 126.152 203.345 130.33 206.752 133.035C210.158 130.33 212.345 126.152 212.345 121.457C212.345 116.763 210.158 112.585 206.752 109.88C203.345 112.585 201.158 116.763 201.158 121.457Z" fill="#80858B"/>
<path d="M229.622 129.443V129.01H229.448V128.891H229.927V129.01H229.753V129.443H229.624H229.622ZM230.545 129.443V129.061L230.421 129.39H230.285L230.162 129.061V129.443H230.033V128.891H230.217L230.353 129.244L230.489 128.891H230.673V129.443H230.545Z" fill="#A8ACAE"/>
<path d="M215.889 106.69C212.435 106.69 209.264 107.885 206.752 109.878C210.158 112.583 212.345 116.761 212.345 121.456C212.345 126.15 210.158 130.328 206.752 133.033C209.264 135.028 212.435 136.221 215.889 136.221C224.024 136.221 230.619 129.61 230.619 121.456C230.619 113.301 224.024 106.69 215.889 106.69Z" fill="#A8ACAE"/>
</g>
</g>
<defs>
<clipPath id="clip0_1712_1468">
<rect width="250" height="160" fill="white"/>
</clipPath>
</defs>
</svg>
