<svg width="250" height="160" viewBox="0 0 250 160" fill="none" xmlns="http://www.w3.org/2000/svg">
<g clip-path="url(#clip0_1416_4132)">
<rect width="250" height="160" fill="#939598"/>
<g clip-path="url(#clip1_1416_4132)">
<path d="M31.7545 16.2222H16.2219V31.7778H31.7545V16.2222Z" fill="white"/>
<path d="M16 16V32H31.9763V16H16ZM19.5237 27.2844V24.1733C19.8257 24.3056 20.0827 24.5232 20.2631 24.7995C20.4436 25.0758 20.5397 25.3987 20.5397 25.7289C20.5397 26.059 20.4436 26.382 20.2631 26.6583C20.0827 26.9346 19.8257 27.1522 19.5237 27.2844V27.2844ZM19.5237 23.6133V20.6578C20.7929 21.1689 21.0015 22.8622 19.5237 23.6133V23.6133ZM20.3225 23.8667C20.7801 23.5546 21.0985 23.0764 21.2101 22.5333V25.2C21.0985 24.6569 20.7801 24.1787 20.3225 23.8667V23.8667ZM22.0044 19.0444C23.8062 20.2222 23.9571 23.7733 22.0044 25.1333V19.0444ZM23.9882 23.1467V30.1956C23.3177 30.1955 22.652 30.0843 22.0178 29.8667V25.9733C22.5281 25.6697 22.9679 25.2605 23.3077 24.773C23.6474 24.2856 23.8795 23.7311 23.9882 23.1467V23.1467ZM24.7604 18.6667C26.8373 19.96 26.7618 23.6667 24.7604 25.1244V18.6667ZM26.7308 23.4222V29.5378C26.1134 29.8499 25.4468 30.0529 24.7604 30.1378V25.9556C25.7013 25.3774 26.4013 24.4774 26.7308 23.4222V23.4222ZM24.9867 17.8978C25.5933 17.9959 26.1815 18.1862 26.7308 18.4622V20.1156C26.4055 19.2061 25.7933 18.4276 24.9867 17.8978ZM27.5118 19.6089C28.9541 20.6356 29.1938 23.2444 27.5118 24.6089V19.6089ZM23.9615 21.08C23.7206 19.8854 23.0393 18.8254 22.0533 18.1111C22.6695 17.9098 23.3134 17.8064 23.9615 17.8044V21.08ZM21.2056 18.4622V21.72C21.0015 20.6489 20.0163 20.08 19.3639 19.8711C19.8876 19.2881 20.5171 18.81 21.2189 18.4622H21.2056ZM18.7293 20.7067V27.2933C18.1053 26.3086 17.774 25.1663 17.774 24C17.774 22.8337 18.1053 21.6914 18.7293 20.7067V20.7067ZM19.3905 28.1467H19.4393L19.5237 28.12C19.9642 27.9603 20.3539 27.6851 20.6521 27.3231C20.9503 26.9612 21.1461 26.5257 21.2189 26.0622V29.5644C20.5258 29.2113 19.9055 28.7303 19.3905 28.1467V28.1467ZM27.5118 29.0756V25.3022L28.7811 27.8978C28.4133 28.3462 27.9863 28.7424 27.5118 29.0756V29.0756ZM29.287 27.16L28.1953 24.9378C28.5707 24.6019 28.872 24.1912 29.0798 23.732C29.2877 23.2728 29.3975 22.7753 29.4024 22.2711C29.4169 21.6604 29.2988 21.0538 29.0562 20.4933C29.74 21.4641 30.1282 22.6125 30.1738 23.7996C30.2195 24.9867 29.9207 26.1616 29.3136 27.1822L29.287 27.16Z" fill="#FF0000"/>
<path d="M40.5103 20H35.5266C35.6599 20.1076 35.7685 20.2427 35.8451 20.3961C35.9217 20.5494 35.9644 20.7175 35.9704 20.8889V27.1556C35.9573 27.319 35.9112 27.4782 35.8349 27.6233C35.7586 27.7684 35.6537 27.8966 35.5266 28H39.6849C39.5557 27.8965 39.4496 27.7671 39.3731 27.6202C39.2967 27.4733 39.2518 27.312 39.2411 27.1467V25.0844H40.8254C41.8417 25.0844 43.7589 24.7111 43.7589 22.5022C43.75 20.8444 42.6272 20 40.5103 20ZM39.2278 24.2311V20.8889C39.9645 20.8889 40.8521 20.92 40.8521 22.5778C40.8521 24.2356 39.787 24.2267 39.2278 24.2311V24.2311Z" fill="white"/>
<path d="M49.1731 19.8267C46.5104 19.8267 44.3713 21.3911 44.3713 23.9911C44.3713 25.0711 44.8817 28.1822 49.253 28.1822C51.7915 28.1822 54.0592 26.9689 54.0592 23.9911C54.0415 21.6133 52.2086 19.8267 49.1731 19.8267ZM49.2219 27.28C48.3654 27.28 47.6021 26.28 47.6021 24.0133C47.6021 21.92 48.1435 20.7378 49.1953 20.7378C50.2471 20.7378 50.8418 21.8622 50.8418 24.0133C50.8418 25.9155 50.3891 27.28 49.2219 27.28Z" fill="white"/>
<path d="M59.5887 20H54.6094C54.7427 20.1076 54.8513 20.2427 54.9279 20.3961C55.0044 20.5494 55.0472 20.7175 55.0532 20.8889V27.1556C55.04 27.319 54.9939 27.4782 54.9176 27.6233C54.8414 27.7684 54.7365 27.8966 54.6094 28H58.7721C58.6429 27.8965 58.5368 27.7671 58.4603 27.6202C58.3839 27.4733 58.339 27.312 58.3283 27.1467V25.0844H59.9126C60.9289 25.0844 62.8461 24.7111 62.8461 22.5022C62.8283 20.8444 61.71 20 59.5887 20ZM58.3106 24.2311V20.8889C59.0472 20.8889 59.9348 20.92 59.9348 22.5778C59.9348 24.2356 58.8653 24.2267 58.3106 24.2311Z" fill="white"/>
<path d="M79.0178 26.8356H76.4527V20.7911C76.4636 20.6341 76.5095 20.4815 76.5871 20.3446C76.6647 20.2077 76.7719 20.0899 76.9009 20H72.7249C72.8581 20.1076 72.9668 20.2427 73.0433 20.3961C73.1199 20.5494 73.1626 20.7175 73.1686 20.8889V27.1689C73.1558 27.3306 73.1097 27.4878 73.0334 27.6308C72.957 27.7739 72.852 27.8995 72.7249 28H79.7278L80.5 26.1867C80.3185 26.4007 80.0907 26.5704 79.8338 26.6828C79.577 26.7953 79.2978 26.8475 79.0178 26.8356V26.8356Z" fill="white"/>
<path d="M93.4541 24.0356L95.8373 28H100C99.7027 27.8934 99.1124 26.9867 98.8506 26.6223C98.5888 26.2578 97.9852 25.4089 97.8388 25.2089C97.5967 24.8053 97.2857 24.4472 96.9201 24.1512V24.1512C97.3889 24.0435 97.8042 23.7726 98.0919 23.3868C98.3797 23.0009 98.5212 22.5252 98.4911 22.0445C98.4911 21.0356 97.8654 20.0134 95.8817 20.0134H89.6686C89.8375 20.1731 89.9674 20.3697 90.0482 20.5878C90.129 20.8059 90.1585 21.0397 90.1346 21.2711V27.32C90.1346 27.4223 90.1346 27.7645 89.9172 27.7645C89.7973 27.7645 89.7308 27.72 89.6287 27.5467L86.5222 19.9911H83.0562C83.1773 20.1174 83.2613 20.2746 83.2989 20.4456C83.3364 20.6165 83.3262 20.7945 83.2692 20.96L80.7929 26.9556C80.6306 27.3639 80.3662 27.7235 80.0251 28H82.0799C81.9603 27.6391 81.9777 27.2467 82.1287 26.8978L82.4793 25.96H85.497L85.8609 26.9556C85.9309 27.1249 85.9578 27.309 85.9392 27.4913C85.9206 27.6736 85.8571 27.8484 85.7544 28H93.8491C93.7261 27.9138 93.6246 27.8004 93.5522 27.6686C93.4799 27.5369 93.4388 27.3902 93.4319 27.24V24.04L93.4541 24.0356ZM93.4541 20.9245H93.9645C95.1893 20.9245 95.2959 21.72 95.2959 22.3645C95.3359 22.7214 95.2333 23.0797 95.0104 23.3612C94.7876 23.6426 94.4627 23.8243 94.1065 23.8667C94.0386 23.8734 93.9702 23.8734 93.9024 23.8667H93.4586L93.4541 20.9245ZM82.8698 25.0045L84.0237 21.9778L85.1509 25L82.8698 25.0045Z" fill="white"/>
<path d="M70.142 20C70.2667 20.0968 70.3687 20.2197 70.4408 20.3603C70.5129 20.5008 70.5533 20.6555 70.5592 20.8133V24.9333C70.5796 25.4042 70.4126 25.8639 70.0947 26.2115C69.7768 26.559 69.3341 26.7659 68.8639 26.7867C68.7989 26.7911 68.7337 26.7911 68.6686 26.7867C68.2096 26.8184 67.7568 26.6663 67.4098 26.3637C67.0628 26.0612 66.8499 25.633 66.8181 25.1733C66.8114 25.0786 66.8114 24.9836 66.8181 24.8889V20.8889C66.812 20.7116 66.8492 20.5355 66.9266 20.376C67.0039 20.2164 67.119 20.0782 67.2618 19.9733H63.0991C63.3559 20.2013 63.5149 20.5197 63.5429 20.8622V24.9822C63.5429 26.76 64.9453 28.1955 67.7056 28.1822C69.2189 28.1822 70.2308 27.8622 70.9098 27.1422C71.4816 26.5336 71.7992 25.729 71.7973 24.8933V20.8889C71.8045 20.7177 71.8477 20.5501 71.9242 20.3968C72.0007 20.2436 72.1087 20.1084 72.2411 20H70.142Z" fill="white"/>
</g>
<path d="M216.567 128C213.017 128 209.844 129.817 209.844 133.175C209.844 137.026 215.471 137.292 215.471 139.226C215.471 140.041 214.526 140.77 212.911 140.77C210.62 140.77 208.908 139.751 208.908 139.751L208.176 143.139C208.176 143.139 210.148 144 212.767 144C216.648 144 219.703 142.093 219.703 138.678C219.703 134.609 214.052 134.351 214.052 132.556C214.052 131.918 214.828 131.219 216.438 131.219C218.254 131.219 219.736 131.959 219.736 131.959L220.453 128.687C220.453 128.687 218.841 128 216.567 128ZM184.086 128.247L184 128.741C184 128.741 185.494 129.011 186.839 129.549C188.571 130.167 188.694 130.526 188.986 131.643L192.165 143.745H196.426L202.99 128.247H198.739L194.521 138.784L192.8 129.852C192.642 128.83 191.842 128.247 190.863 128.247H184.086ZM204.7 128.247L201.365 143.745H205.419L208.742 128.247H204.7ZM227.31 128.247C226.333 128.247 225.815 128.764 225.435 129.667L219.495 143.745H223.747L224.569 141.399H229.749L230.249 143.745H234L230.727 128.247H227.31ZM227.863 132.434L229.123 138.25H225.747L227.863 132.434Z" fill="white"/>
<g clip-path="url(#clip2_1416_4132)">
<path d="M227.522 101.922V105.863H225.647C225.386 105.863 225.173 106.078 225.173 106.34V111.307C225.173 111.57 224.959 111.785 224.698 111.785H220.142C219.881 111.785 219.668 111.57 219.668 111.307V96.4776C219.668 96.2149 219.881 96 220.142 96H224.698C224.959 96 225.173 96.2149 225.173 96.4776V101.445C225.173 101.707 225.386 101.922 225.647 101.922H227.522Z" fill="white"/>
<path d="M202.512 109.803H197.363C197.173 109.803 196.983 109.922 196.912 110.113L196.39 111.475C196.319 111.666 196.153 111.785 195.939 111.785H192.712C192.38 111.785 192.142 111.451 192.261 111.14L197.339 97.8866C197.434 97.6477 197.553 97.4089 197.695 97.2179L199.783 102.663L198.81 105.218C198.691 105.528 198.929 105.863 199.261 105.863H200.898C200.946 105.863 200.969 105.863 201.017 105.839L202.512 109.803Z" fill="white"/>
<path d="M207.447 111.785H204.102L203.58 110.4L198.312 96.6209C198.359 96.597 198.407 96.5493 198.454 96.5254C198.929 96.191 199.498 96 200.115 96C201.325 96 202.417 96.7403 202.844 97.8866L207.898 111.14C208.017 111.451 207.78 111.785 207.447 111.785Z" fill="white"/>
<path d="M214.59 100.728V111.307C214.59 111.57 214.376 111.785 214.115 111.785H209.559C209.298 111.785 209.085 111.57 209.085 111.307V100.728H214.59Z" fill="white"/>
<path d="M218.885 96.4776V99.9403H204.79V96.4776C204.79 96.2149 205.003 96 205.264 96H218.434C218.671 96 218.885 96.2149 218.885 96.4776Z" fill="white"/>
<path d="M233.786 96.4776V111.307C233.786 111.57 233.573 111.785 233.312 111.785H228.305V96H233.312C233.573 96 233.786 96.2149 233.786 96.4776Z" fill="white"/>
</g>
</g>
<defs>
<clipPath id="clip0_1416_4132">
<rect width="250" height="160" fill="white"/>
</clipPath>
<clipPath id="clip1_1416_4132">
<rect width="84" height="16" fill="white" transform="translate(16 16)"/>
</clipPath>
<clipPath id="clip2_1416_4132">
<rect width="42" height="16" fill="white" transform="translate(192 96)"/>
</clipPath>
</defs>
</svg>
