<svg width="50" height="32" viewBox="0 0 50 32" fill="none" xmlns="http://www.w3.org/2000/svg">
<rect width="50" height="32" fill="#091C5A"/>
<g clip-path="url(#clip0_10445_13237)">
<path d="M6.35095 3.24444H3.24445V6.35555H6.35095V3.24444Z" fill="white"/>
<path d="M3.20001 3.2V6.4H6.39528V3.2H3.20001ZM3.90475 5.45689V4.83466C3.96515 4.86112 4.01655 4.90464 4.05264 4.95989C4.08873 5.01515 4.10796 5.07975 4.10796 5.14577C4.10796 5.2118 4.08873 5.2764 4.05264 5.33166C4.01655 5.38691 3.96515 5.43043 3.90475 5.45689ZM3.90475 4.72266V4.13155C4.15859 4.23377 4.20031 4.57244 3.90475 4.72266ZM4.06451 4.77333C4.15603 4.71092 4.2197 4.61528 4.24202 4.50666V5.04C4.2197 4.93138 4.15603 4.83574 4.06451 4.77333ZM4.4009 3.80889C4.76125 4.04444 4.79143 4.75466 4.4009 5.02666V3.80889ZM4.79765 4.62933V6.03911C4.66356 6.03909 4.5304 6.01687 4.40356 5.97333V5.19466C4.50563 5.13394 4.59358 5.05209 4.66154 4.9546C4.7295 4.85711 4.7759 4.74622 4.79765 4.62933ZM4.95208 3.73333C5.36747 3.992 5.35238 4.73333 4.95208 5.02489V3.73333ZM5.34617 4.68444V5.90755C5.22269 5.96998 5.08936 6.01058 4.95208 6.02755V5.19111C5.14028 5.07548 5.28027 4.89548 5.34617 4.68444ZM4.99735 3.57955C5.11868 3.59918 5.23631 3.63725 5.34617 3.69244V4.02311C5.28112 3.84122 5.15866 3.68551 4.99735 3.57955ZM5.50238 3.92177C5.79084 4.12711 5.83877 4.64889 5.50238 4.92177V3.92177ZM4.79232 4.216C4.74413 3.97707 4.60787 3.76508 4.41066 3.62222C4.53391 3.58196 4.66269 3.56127 4.79232 3.56089V4.216ZM4.24114 3.69244V4.344C4.20031 4.12977 4.00327 4.016 3.87279 3.97422C3.97754 3.85762 4.10344 3.76201 4.2438 3.69244H4.24114ZM3.74587 4.14133V5.45866C3.62107 5.26171 3.55481 5.03326 3.55481 4.8C3.55481 4.56673 3.62107 4.33829 3.74587 4.14133ZM3.87812 5.62933H3.88788L3.90475 5.624C3.99286 5.59205 4.0708 5.53702 4.13044 5.46463C4.19007 5.39224 4.22922 5.30515 4.2438 5.21244V5.91289C4.10517 5.84226 3.9811 5.74606 3.87812 5.62933ZM5.50238 5.81511V5.06044L5.75622 5.57955C5.68267 5.66924 5.59727 5.74849 5.50238 5.81511ZM5.85741 5.432L5.63907 4.98755C5.71415 4.92038 5.77441 4.83824 5.81598 4.7464C5.85755 4.65457 5.87952 4.55505 5.88049 4.45422C5.88339 4.33208 5.85977 4.21076 5.81125 4.09866C5.948 4.29282 6.02564 4.5225 6.03478 4.75992C6.04392 4.99734 5.98416 5.23232 5.86273 5.43644L5.85741 5.432Z" fill="#FF0000"/>
<path d="M8.10215 4H7.10541C7.13207 4.02152 7.15379 4.04854 7.16911 4.07922C7.18442 4.10989 7.19297 4.1435 7.19417 4.17778V5.43111C7.19154 5.46381 7.18232 5.49563 7.16706 5.52466C7.15181 5.55369 7.13083 5.57932 7.10541 5.6H7.93706C7.91123 5.5793 7.89 5.55343 7.87471 5.52404C7.85943 5.49465 7.85044 5.4624 7.84831 5.42933V5.01689H8.16517C8.36843 5.01689 8.75186 4.94222 8.75186 4.50044C8.75008 4.16889 8.52553 4 8.10215 4ZM7.84564 4.84622V4.17778C7.99298 4.17778 8.1705 4.184 8.1705 4.51556C8.1705 4.84711 7.95748 4.84533 7.84564 4.84622Z" fill="white"/>
<path d="M9.83468 3.96532C9.30214 3.96532 8.87433 4.27821 8.87433 4.79821C8.87433 5.01421 8.9764 5.63644 9.85066 5.63644C10.3584 5.63644 10.8119 5.39377 10.8119 4.79821C10.8084 4.32266 10.4418 3.96532 9.83468 3.96532ZM9.84445 5.45599C9.67315 5.45599 9.52048 5.25599 9.52048 4.80266C9.52048 4.38399 9.62877 4.14755 9.83912 4.14755C10.0495 4.14755 10.1684 4.37244 10.1684 4.80266C10.1684 5.1831 10.0779 5.45599 9.84445 5.45599Z" fill="white"/>
<path d="M11.9178 4H10.9219C10.9486 4.02152 10.9703 4.04854 10.9856 4.07922C11.0009 4.10989 11.0095 4.1435 11.0107 4.17778V5.43111C11.0081 5.46381 10.9988 5.49563 10.9836 5.52466C10.9683 5.55369 10.9474 5.57932 10.9219 5.6H11.7545C11.7286 5.5793 11.7074 5.55343 11.6921 5.52404C11.6768 5.49465 11.6679 5.4624 11.6657 5.42933V5.01689H11.9826C12.1858 5.01689 12.5693 4.94222 12.5693 4.50044C12.5657 4.16889 12.3421 4 11.9178 4ZM11.6622 4.84622V4.17778C11.8095 4.17778 11.987 4.184 11.987 4.51556C11.987 4.84711 11.7731 4.84533 11.6622 4.84622Z" fill="white"/>
<path d="M15.8036 5.36711H15.2906V4.15822C15.2928 4.12682 15.302 4.0963 15.3175 4.06892C15.333 4.04154 15.3545 4.01799 15.3803 4H14.545C14.5717 4.02152 14.5934 4.04854 14.6087 4.07922C14.6241 4.10989 14.6326 4.1435 14.6338 4.17778V5.43378C14.6312 5.46611 14.622 5.49756 14.6067 5.52617C14.5915 5.55477 14.5705 5.57991 14.545 5.6H15.9456L16.1001 5.23733C16.0638 5.28013 16.0182 5.31407 15.9668 5.33656C15.9155 5.35905 15.8596 5.3695 15.8036 5.36711Z" fill="white"/>
<path d="M18.6909 4.8071L19.1675 5.59999H20C19.9406 5.57866 19.8225 5.39733 19.7702 5.32444C19.7178 5.25155 19.5971 5.08177 19.5678 5.04177C19.5194 4.96104 19.4572 4.88943 19.3841 4.83021C19.4778 4.80869 19.5609 4.75451 19.6184 4.67734C19.676 4.60016 19.7043 4.50502 19.6983 4.40888C19.6983 4.2071 19.5731 4.00266 19.1764 4.00266H17.9338C17.9675 4.03461 17.9935 4.07392 18.0097 4.11755C18.0258 4.16117 18.0317 4.20793 18.027 4.25421V5.46399C18.027 5.48444 18.027 5.55288 17.9835 5.55288C17.9595 5.55288 17.9462 5.54399 17.9258 5.50933L17.3045 3.99821H16.6113C16.6355 4.02346 16.6523 4.05491 16.6598 4.0891C16.6673 4.12329 16.6653 4.15889 16.6539 4.19199L16.1586 5.3911C16.1261 5.47276 16.0733 5.54469 16.0051 5.59999H16.416C16.3921 5.52781 16.3956 5.44933 16.4258 5.37955L16.4959 5.19199H17.0994L17.1722 5.3911C17.1862 5.42497 17.1916 5.46178 17.1879 5.49824C17.1842 5.5347 17.1715 5.56966 17.1509 5.59999H18.7699C18.7453 5.58274 18.7249 5.56007 18.7105 5.53371C18.696 5.50736 18.6878 5.47803 18.6864 5.44799V4.80799L18.6909 4.8071ZM18.6909 4.18488H18.7929C19.0379 4.18488 19.0592 4.34399 19.0592 4.47288C19.0672 4.54427 19.0467 4.61593 19.0021 4.67222C18.9576 4.72851 18.8926 4.76485 18.8213 4.77333C18.8078 4.77466 18.7941 4.77466 18.7805 4.77333H18.6918L18.6909 4.18488ZM16.574 5.00088L16.8048 4.39555L17.0302 4.99999L16.574 5.00088Z" fill="white"/>
<path d="M14.0285 4C14.0534 4.01935 14.0738 4.04395 14.0882 4.07206C14.1026 4.10016 14.1107 4.13109 14.1119 4.16267V4.98667C14.116 5.08084 14.0826 5.17279 14.019 5.2423C13.9554 5.3118 13.8669 5.35318 13.7728 5.35733C13.7598 5.35822 13.7468 5.35822 13.7338 5.35733C13.642 5.36368 13.5514 5.33326 13.482 5.27275C13.4126 5.21224 13.37 5.1266 13.3637 5.03467C13.3623 5.01573 13.3623 4.99672 13.3637 4.97778V4.17778C13.3624 4.14233 13.3699 4.10711 13.3854 4.0752C13.4008 4.04329 13.4239 4.01564 13.4524 3.99467H12.6199C12.6712 4.04026 12.703 4.10394 12.7086 4.17244V4.99644C12.7086 5.352 12.9891 5.63911 13.5412 5.63644C13.8438 5.63644 14.0462 5.57244 14.182 5.42844C14.2964 5.30673 14.3599 5.1458 14.3595 4.97867V4.17778C14.3609 4.14355 14.3696 4.11001 14.3849 4.07937C14.4002 4.04873 14.4218 4.02168 14.4483 4H14.0285Z" fill="white"/>
</g>
<g clip-path="url(#clip1_10445_13237)">
<path d="M45.5044 26.7845V27.5725H45.1295C45.0773 27.5725 45.0346 27.6155 45.0346 27.6681V28.6615C45.0346 28.714 44.9919 28.757 44.9397 28.757H44.0285C43.9763 28.757 43.9336 28.714 43.9336 28.6615V25.6955C43.9336 25.643 43.9763 25.6 44.0285 25.6H44.9397C44.9919 25.6 45.0346 25.643 45.0346 25.6955V26.689C45.0346 26.7415 45.0773 26.7845 45.1295 26.7845H45.5044Z" fill="white"/>
<path d="M40.5024 28.3606H39.4726C39.4346 28.3606 39.3967 28.3845 39.3824 28.4227L39.278 28.6949C39.2638 28.7331 39.2305 28.757 39.1878 28.757H38.5424C38.476 28.757 38.4285 28.6901 38.4522 28.6281L39.4678 25.9773C39.4868 25.9296 39.5105 25.8818 39.539 25.8436L39.9567 26.9325L39.7621 27.4436C39.7383 27.5057 39.7858 27.5725 39.8522 27.5725H40.1797C40.1892 27.5725 40.1939 27.5725 40.2034 27.5678L40.5024 28.3606Z" fill="white"/>
<path d="M41.4895 28.757H40.8204L40.716 28.48L39.6624 25.7242C39.6719 25.7194 39.6814 25.7098 39.6909 25.7051C39.7858 25.6382 39.8997 25.6 40.0231 25.6C40.2651 25.6 40.4834 25.7481 40.5689 25.9773L41.5797 28.6281C41.6034 28.6901 41.556 28.757 41.4895 28.757Z" fill="white"/>
<path d="M42.918 26.5457V28.6615C42.918 28.714 42.8753 28.757 42.8231 28.757H41.9119C41.8597 28.757 41.817 28.714 41.817 28.6615V26.5457H42.918Z" fill="white"/>
<path d="M43.777 25.6955V26.3881H40.958V25.6955C40.958 25.643 41.0007 25.6 41.0529 25.6H43.6868C43.7343 25.6 43.777 25.643 43.777 25.6955Z" fill="white"/>
<path d="M46.7573 25.6955V28.6615C46.7573 28.714 46.7146 28.757 46.6624 28.757H45.6611V25.6H46.6624C46.7146 25.6 46.7573 25.643 46.7573 25.6955Z" fill="white"/>
</g>
<defs>
<clipPath id="clip0_10445_13237">
<rect width="16.8" height="3.2" fill="white" transform="translate(3.20001 3.2)"/>
</clipPath>
<clipPath id="clip1_10445_13237">
<rect width="8.4" height="3.2" fill="white" transform="translate(38.4 25.6)"/>
</clipPath>
</defs>
</svg>
