<svg width="57" height="36" viewBox="0 0 57 36" fill="none" xmlns="http://www.w3.org/2000/svg">
<g clip-path="url(#clip0_10395_725)">
<rect width="56.25" height="36" fill="#091C5A"/>
<g clip-path="url(#clip1_10395_725)">
<path d="M7.14474 3.64996H3.64992V7.14996H7.14474V3.64996Z" fill="white"/>
<path d="M3.6 3.59998V7.19998H7.19467V3.59998H3.6ZM4.39282 6.13898V5.43898C4.46078 5.46874 4.5186 5.5177 4.55921 5.57986C4.59981 5.64202 4.62144 5.71469 4.62144 5.78898C4.62144 5.86326 4.59981 5.93593 4.55921 5.99809C4.5186 6.06026 4.46078 6.10921 4.39282 6.13898ZM4.39282 5.31298V4.64798C4.6784 4.76298 4.72533 5.14398 4.39282 5.31298ZM4.57256 5.36998C4.67552 5.29976 4.74715 5.19217 4.77226 5.06998V5.66998C4.74715 5.54779 4.67552 5.44019 4.57256 5.36998ZM4.951 4.28498C5.3564 4.54998 5.39035 5.34898 4.951 5.65498V4.28498ZM5.39734 5.20798V6.79398C5.24649 6.79396 5.09669 6.76895 4.95399 6.71998V5.84398C5.06882 5.77566 5.16777 5.68358 5.24422 5.57391C5.32067 5.46423 5.37288 5.33947 5.39734 5.20798ZM5.57108 4.19998C6.03839 4.49098 6.02141 5.32498 5.57108 5.65298V4.19998ZM6.01442 5.26998V6.64598C5.87551 6.71621 5.72552 6.76188 5.57108 6.78098V5.83998C5.7828 5.70989 5.94029 5.5074 6.01442 5.26998ZM5.622 4.02698C5.7585 4.04905 5.89083 4.09188 6.01442 4.15398V4.52598C5.94124 4.32135 5.80348 4.14618 5.622 4.02698ZM6.19016 4.41198C6.51468 4.64298 6.5686 5.22998 6.19016 5.53698V4.41198ZM5.39134 4.74298C5.33714 4.47418 5.18384 4.23569 4.96198 4.07498C5.10063 4.02969 5.24551 4.0064 5.39134 4.00598V4.74298ZM4.77126 4.15398V4.88698C4.72533 4.64598 4.50366 4.51798 4.35688 4.47098C4.47472 4.33981 4.61635 4.23224 4.77426 4.15398H4.77126ZM4.21409 4.65898V6.14098C4.07369 5.9194 3.99914 5.6624 3.99914 5.39998C3.99914 5.13756 4.07369 4.88055 4.21409 4.65898ZM4.36287 6.33298H4.37385L4.39282 6.32698C4.49195 6.29104 4.57964 6.22912 4.64673 6.14768C4.71382 6.06625 4.75786 5.96827 4.77426 5.86398V6.65198C4.6183 6.57252 4.47873 6.46429 4.36287 6.33298ZM6.19016 6.54198V5.69298L6.47574 6.27698C6.39299 6.37787 6.29692 6.46703 6.19016 6.54198ZM6.58957 6.11098L6.34393 5.61098C6.42841 5.5354 6.49619 5.443 6.54296 5.33968C6.58973 5.23637 6.61445 5.12441 6.61553 5.01098C6.6188 4.87357 6.59223 4.73709 6.53765 4.61098C6.69149 4.8294 6.77883 5.08779 6.78911 5.35489C6.79939 5.62198 6.73216 5.88634 6.59556 6.11598L6.58957 6.11098Z" fill="#FF0000"/>
<path d="M9.11482 4.5H7.99348C8.02347 4.52422 8.04791 4.55461 8.06514 4.58912C8.08237 4.62363 8.09198 4.66144 8.09333 4.7V6.11C8.09038 6.14678 8.08 6.18259 8.06284 6.21524C8.04568 6.2479 8.02208 6.27673 7.99348 6.3H8.92909C8.90003 6.27671 8.87614 6.24761 8.85895 6.21455C8.84176 6.18149 8.83164 6.1452 8.82924 6.108V5.644H9.18571C9.41438 5.644 9.84574 5.56 9.84574 5.063C9.84374 4.69 9.59111 4.5 9.11482 4.5ZM8.82625 5.452V4.7C8.992 4.7 9.19171 4.707 9.19171 5.08C9.19171 5.453 8.95206 5.451 8.82625 5.452Z" fill="white"/>
<path d="M11.0639 4.461C10.4648 4.461 9.98354 4.813 9.98354 5.398C9.98354 5.641 10.0984 6.341 11.0819 6.341C11.6531 6.341 12.1633 6.068 12.1633 5.398C12.1593 4.863 11.7469 4.461 11.0639 4.461ZM11.0749 6.138C10.8822 6.138 10.7105 5.913 10.7105 5.403C10.7105 4.932 10.8323 4.666 11.0689 4.666C11.3056 4.666 11.4394 4.919 11.4394 5.403C11.4394 5.831 11.3375 6.138 11.0749 6.138Z" fill="white"/>
<path d="M13.4075 4.5H12.2871C12.3171 4.52422 12.3416 4.55461 12.3588 4.58912C12.376 4.62363 12.3856 4.66144 12.387 4.7V6.11C12.384 6.14678 12.3736 6.18259 12.3565 6.21524C12.3393 6.2479 12.3157 6.27673 12.2871 6.3H13.2237C13.1947 6.27671 13.1708 6.24761 13.1536 6.21455C13.1364 6.18149 13.1263 6.1452 13.1239 6.108V5.644H13.4804C13.709 5.644 14.1404 5.56 14.1404 5.063C14.1364 4.69 13.8848 4.5 13.4075 4.5ZM13.1199 5.452V4.7C13.2856 4.7 13.4853 4.707 13.4853 5.08C13.4853 5.453 13.2447 5.451 13.1199 5.452Z" fill="white"/>
<path d="M17.779 6.038H17.2018V4.678C17.2043 4.64267 17.2146 4.60834 17.2321 4.57754C17.2495 4.54673 17.2737 4.52024 17.3027 4.5H16.3631C16.3931 4.52422 16.4175 4.55461 16.4347 4.58912C16.452 4.62363 16.4616 4.66144 16.4629 4.7V6.113C16.46 6.14938 16.4497 6.18476 16.4325 6.21694C16.4153 6.24912 16.3917 6.27739 16.3631 6.3H17.9387L18.1125 5.892C18.0717 5.94015 18.0204 5.97833 17.9626 6.00363C17.9048 6.02894 17.842 6.04069 17.779 6.038Z" fill="white"/>
<path d="M21.0272 5.40799L21.5634 6.29999H22.5C22.4331 6.27599 22.3003 6.07199 22.2414 5.98999C22.1825 5.90799 22.0467 5.71699 22.0137 5.67199C21.9592 5.58116 21.8893 5.50061 21.807 5.43399C21.9125 5.40977 22.0059 5.34882 22.0707 5.262C22.1354 5.17517 22.1673 5.06814 22.1605 4.95999C22.1605 4.73299 22.0197 4.50299 21.5734 4.50299H20.1754C20.2134 4.53893 20.2426 4.58316 20.2608 4.63224C20.279 4.68131 20.2857 4.73392 20.2803 4.78599V6.14699C20.2803 6.16999 20.2803 6.24699 20.2313 6.24699C20.2044 6.24699 20.1894 6.23699 20.1664 6.19799L19.4675 4.49799H18.6876C18.7149 4.52639 18.7338 4.56177 18.7422 4.60023C18.7507 4.6387 18.7484 4.67875 18.7356 4.71599L18.1784 6.06499C18.1419 6.15685 18.0824 6.23777 18.0056 6.29999H18.468C18.4411 6.21878 18.445 6.13049 18.4789 6.05199L18.5578 5.84099H19.2368L19.3187 6.06499C19.3344 6.10308 19.3405 6.1445 19.3363 6.18551C19.3321 6.22653 19.3178 6.26586 19.2947 6.29999H21.116C21.0884 6.28058 21.0655 6.25507 21.0492 6.22542C21.033 6.19578 21.0237 6.16278 21.0222 6.12899V5.40899L21.0272 5.40799ZM21.0272 4.70799H21.142C21.4176 4.70799 21.4416 4.88699 21.4416 5.03199C21.4506 5.1123 21.4275 5.19291 21.3773 5.25624C21.3272 5.31956 21.2541 5.36045 21.174 5.36999C21.1587 5.37148 21.1433 5.37148 21.128 5.36999H21.0282L21.0272 4.70799ZM18.6457 5.62599L18.9053 4.94499L19.1589 5.62499L18.6457 5.62599Z" fill="white"/>
<path d="M15.7819 4.49996C15.81 4.52173 15.833 4.5494 15.8492 4.58102C15.8654 4.61264 15.8745 4.64744 15.8758 4.68296V5.60996C15.8804 5.7159 15.8428 5.81934 15.7713 5.89754C15.6998 5.97574 15.6002 6.02229 15.4944 6.02696C15.4797 6.02796 15.4651 6.02796 15.4504 6.02696C15.3472 6.0341 15.2453 5.99987 15.1672 5.9318C15.0891 5.86373 15.0412 5.76739 15.0341 5.66396C15.0326 5.64265 15.0326 5.62126 15.0341 5.59996V4.69996C15.0327 4.66007 15.0411 4.62046 15.0585 4.58456C15.0759 4.54865 15.1018 4.51755 15.1339 4.49396H14.1973C14.2551 4.54525 14.2908 4.6169 14.2971 4.69396V5.62096C14.2971 6.02096 14.6127 6.34396 15.2338 6.34096C15.5743 6.34096 15.8019 6.26896 15.9547 6.10696C16.0834 5.97003 16.1548 5.78898 16.1544 5.60096V4.69996C16.156 4.66145 16.1657 4.62372 16.1829 4.58925C16.2001 4.55478 16.2245 4.52435 16.2542 4.49996H15.7819Z" fill="white"/>
</g>
<g clip-path="url(#clip2_10395_725)">
<path d="M51.1924 30.1325V31.0191H50.7706C50.7119 31.0191 50.6639 31.0675 50.6639 31.1266V32.2442C50.6639 32.3033 50.6158 32.3516 50.5571 32.3516H49.532C49.4733 32.3516 49.4252 32.3033 49.4252 32.2442V28.9075C49.4252 28.8483 49.4733 28.8 49.532 28.8H50.5571C50.6158 28.8 50.6639 28.8483 50.6639 28.9075V30.0251C50.6639 30.0842 50.7119 30.1325 50.7706 30.1325H51.1924Z" fill="white"/>
<path d="M45.5651 31.9057H44.4066C44.3639 31.9057 44.3212 31.9325 44.3051 31.9755L44.1877 32.2818C44.1717 32.3248 44.1343 32.3516 44.0862 32.3516H43.3601C43.2854 32.3516 43.232 32.2764 43.2587 32.2066L44.4012 29.2245C44.4226 29.1708 44.4493 29.117 44.4813 29.074L44.9512 30.2991L44.7323 30.874C44.7056 30.9439 44.759 31.0191 44.8337 31.0191H45.2021C45.2128 31.0191 45.2181 31.0191 45.2288 31.0137L45.5651 31.9057Z" fill="white"/>
<path d="M46.6756 32.3516H45.9229L45.8054 32.04L44.6201 28.9397C44.6308 28.9343 44.6415 28.9236 44.6522 28.9182C44.759 28.843 44.8871 28.8 45.0259 28.8C45.2982 28.8 45.5438 28.9666 45.6399 29.2245L46.7771 32.2066C46.8038 32.2764 46.7504 32.3516 46.6756 32.3516Z" fill="white"/>
<path d="M48.2827 29.8639V32.2442C48.2827 32.3033 48.2346 32.3517 48.1759 32.3517H47.1508C47.0921 32.3517 47.044 32.3033 47.044 32.2442V29.8639H48.2827Z" fill="white"/>
<path d="M49.249 28.9075V29.6866H46.0777V28.9075C46.0777 28.8483 46.1257 28.8 46.1845 28.8H49.1476C49.201 28.8 49.249 28.8483 49.249 28.9075Z" fill="white"/>
<path d="M52.6019 28.9075V32.2442C52.6019 32.3033 52.5539 32.3516 52.4951 32.3516H51.3686V28.8H52.4951C52.5539 28.8 52.6019 28.8483 52.6019 28.9075Z" fill="white"/>
</g>
</g>
<defs>
<clipPath id="clip0_10395_725">
<rect width="56.25" height="36" fill="white"/>
</clipPath>
<clipPath id="clip1_10395_725">
<rect width="18.9" height="3.6" fill="white" transform="translate(3.6 3.59998)"/>
</clipPath>
<clipPath id="clip2_10395_725">
<rect width="9.45" height="3.6" fill="white" transform="translate(43.2 28.8)"/>
</clipPath>
</defs>
</svg>
